<svg xmlns="http://www.w3.org/2000/svg"><symbol id="close" viewBox="0 0 255 255"><g id="Symbol_132_1"><path id="Cancel" fill-rule="evenodd" d="M127.5 97.39L37.2 7.16A21.28 21.28 0 1 0 5.36 35.41a21.72 21.72 0 0 0 1.8 1.79l90.23 90.3-90.23 90.3a21.28 21.28 0 1 0 28.25 31.84 21.72 21.72 0 0 0 1.79-1.8l90.3-90.23 90.3 90.23a21.28 21.28 0 1 0 31.84-28.25 21.72 21.72 0 0 0-1.8-1.79l-90.23-90.3 90.23-90.3a21.28 21.28 0 1 0-28.25-31.84 21.72 21.72 0 0 0-1.79 1.8z"/></g></symbol><symbol id="coin" viewBox="0 0 255 255"><path fill-rule="evenodd" d="M254.28 115.24a101.7 101.7 0 0 0-2.7-14.28A104.12 104.12 0 0 0 151 23.5h-47a103.47 103.47 0 0 0-65 22.81 7.59 7.59 0 0 0-1.16 1.18 104.3 104.3 0 0 0-22.25 25.65 6.7 6.7 0 0 0-1.14 1.44l-.08.14a6.52 6.52 0 0 0-.73 1.74 103 103 0 0 0-10 24.69 7.27 7.27 0 0 0-.69 1.73A104.06 104.06 0 0 0 0 128.81a102.44 102.44 0 0 0 22.06 62.33 103.79 103.79 0 0 0 64.26 38.66 106.4 106.4 0 0 0 18.91 1.7H151a103.7 103.7 0 0 0 81.08-38.89 101.58 101.58 0 0 0 9.68-14.29 103.44 103.44 0 0 0 9.85-24.4 101.67 101.67 0 0 0 2.68-14.28 103.47 103.47 0 0 0 .71-12.14 105.53 105.53 0 0 0-.72-12.26zm-25.89-33.13a89.09 89.09 0 0 1 5.81 11.8 5.12 5.12 0 0 1-4.73 7h-16.89a10.85 10.85 0 0 1-10.24-7.38l-.39-1.1-.38-1L201 90l-.39-1-.61-1.59-.36-.85c-.24-.55-.47-1.1-.72-1.64-.1-.23-.21-.45-.31-.68-.2-.44-.39-.88-.6-1.31a4.44 4.44 0 0 1 4-6.37h16.59a11.36 11.36 0 0 1 9.79 5.55zm-53-41a89.16 89.16 0 0 1 28.93 14.21 3.83 3.83 0 0 1-2.26 6.91h-11.3a12.33 12.33 0 0 1-9.22-4.06l-.39-.42-.78-.85c-.88-.95-1.78-1.89-2.69-2.81l-.15-.15c-1.93-1.93-3.94-3.8-6-5.58a4.2 4.2 0 0 1 3.86-7.21zm-85-2.31h.13c1.2-.18 2.41-.33 3.63-.47l1-.11c.58-.06 1.15-.11 1.73-.15.9-.07 1.81-.13 2.72-.18h1.07c1 0 2.06-.06 3.1-.07h.23a89.69 89.69 0 0 1 89.66 89.7 89.36 89.36 0 0 1-15.78 50.82 90 90 0 0 1-32.5 28.76l-.25.13c-1.06.55-2.13 1.07-3.22 1.58l-.79.37c-.93.42-1.87.82-2.81 1.21l-1.33.55c-.8.31-1.6.61-2.41.9-1.14.42-2.3.81-3.47 1.18l-.38.12a89.69 89.69 0 1 1-40.31-174.3zm113 161.45A89.53 89.53 0 0 1 178 213.06a4.78 4.78 0 0 1-4.62-8.13 105.24 105.24 0 0 0 9.62-9.85 7.09 7.09 0 0 1 5.39-2.47h12.49a4.25 4.25 0 0 1 2.56 7.68zm28.32-33.7q-1.75 3.61-3.82 7a9.69 9.69 0 0 1-8.29 4.68h-16.74a4.94 4.94 0 0 1-4.52-7c1.3-2.79 2.48-5.66 3.53-8.58a13.35 13.35 0 0 1 12.56-8.83h9.29a8.87 8.87 0 0 1 8.04 12.77zm8.74-32.91a6.39 6.39 0 0 1-6.38 6h-21.01a5.26 5.26 0 0 1-5.27-5.58v-2.03c0-.56.05-1.13.07-1.7v-5.58c0-.53 0-1.07-.06-1.6s0-.83 0-1.24v-.45a5.85 5.85 0 0 1 5.83-6.19h18a9 9 0 0 1 9 8.64c.05 1.2.08 2.41.08 3.62q0 3.09-.21 6.15z"/><path fill-rule="evenodd" d="M84.88 170.12a11.48 11.48 0 0 1 5.84 10.09v1.3c0 2.59 1.5 4.09 4.08 4h15.26a4.09 4.09 0 0 0 4.09-4.09v-.22a11.77 11.77 0 0 1 6.8-10.59 27.44 27.44 0 0 0 15.67-23.92c-.41-30.11-38-27-40.18-37.33-.68-2.59 1.23-6 6.13-6.13 6-.14 8.85 3.27 9.94 8.58.41 2.59 1.77 3.82 4.36 3.13l14.44-3.54c2.32-.54 3.41-1.9 3.14-4.36-.58-6.5-3.15-16.67-13.26-22.22a11.57 11.57 0 0 1-6-10.16v-1a4.09 4.09 0 0 0-4.09-4.09H95.89c-2.58 0-4.08 1.37-4.08 4.09v.8a11.63 11.63 0 0 1-6.09 10.12c-12.4 6.9-12.7 20.82-12.58 23.68.55 30.11 36.38 24.79 39 36.1.69 2.73-1.09 7.22-8.72 7.36-7.35.13-9.39-3.54-10.07-9.81-.41-2.73-1.78-3.68-4.23-3.14l-14.44 3.41a4 4 0 0 0-3.27 4.36c.66 7.09 3.07 17.84 13.47 23.58z"/></symbol><symbol id="card" viewBox="0 0 255 255"><path d="M30 80.69h87.86a7 7 0 1 0 0-14H30a7 7 0 0 0 0 14z"/><path fill-rule="evenodd" d="M232.31 36.43H22.69A22.69 22.69 0 0 0 0 59.12v136.76a22.69 22.69 0 0 0 22.69 22.69h209.62A22.69 22.69 0 0 0 255 195.88V59.12a22.69 22.69 0 0 0-22.69-22.69zM241 195.88a8.69 8.69 0 0 1-8.69 8.69H22.69a8.69 8.69 0 0 1-8.69-8.69V179a8.35 8.35 0 0 1 8.35-8.35h210.3A8.35 8.35 0 0 1 241 179zm0-71.54a8.35 8.35 0 0 1-8.35 8.35H22.35a8.35 8.35 0 0 1-8.35-8.35V59.12a8.69 8.69 0 0 1 8.69-8.69h209.62a8.69 8.69 0 0 1 8.69 8.69z"/></symbol><symbol id="fb" viewBox="0 0 255 255"><path id="Path_38" fill-rule="evenodd" d="M147.33 247.79v-101.7a7.2 7.2 0 0 1 7.2-7.21h26.08a7.2 7.2 0 0 0 7.15-6.31l3.86-30.9a7.21 7.21 0 0 0-7.16-8.1h-29.93a7.2 7.2 0 0 1-7.2-7.21v-21.1c0-12.74 4.19-22.66 22.65-22.66h16.87a7.2 7.2 0 0 0 7.2-7.21V8.44a7.2 7.2 0 0 0-6.79-7.2c-7.1-.41-17.49-1.12-28.6-1.12a54.66 54.66 0 0 0-58.08 59.21 4.87 4.87 0 0 1 0 .54v26.49a7.2 7.2 0 0 1-7.2 7.21H68.15a7.2 7.2 0 0 0-7.2 7.21v30.9a7.2 7.2 0 0 0 7.2 7.2h25.23a7.21 7.21 0 0 1 7.21 7.21v101.69a7.21 7.21 0 0 0 7.2 7.21h32.33a7.21 7.21 0 0 0 7.21-7.2z"/></symbol><symbol id="logo" viewBox="0 0 255 255"><path d="M236 129a5.15 5.15 0 0 1-1.79-7 5.69 5.69 0 0 1 1.5-1.59c9.76-6.18 16.23-17.43 16.23-32.18 0-18.72-14.44-40.84-47.61-40.84h-75.44a4.94 4.94 0 0 0-5 5v29.39a4.94 4.94 0 0 0 5 5H193a9.83 9.83 0 0 1 9.57 9.86C202.61 102.4 198 107 193 107H53.59a5.1 5.1 0 0 1-5.08-5.08v-9.58a5.1 5.1 0 0 1 5.08-5.08h45.52a5.1 5.1 0 0 0 5.08-5.08V52.89a4.93 4.93 0 0 0-5-5H5.08A4.93 4.93 0 0 0 0 52.79v149.32a4.93 4.93 0 0 0 5 5h38.43a4.93 4.93 0 0 0 5.08-4.88v-50.8a5.1 5.1 0 0 1 5.08-5.08h65.24a5.1 5.1 0 0 1 5.08 5.08v51.1a4.94 4.94 0 0 0 4.88 5.08h78.9c32.17 0 47.31-21.12 47.31-43.43 0-15.74-7.67-28.69-19-35.17zm-41.53 39.25h-17a4.94 4.94 0 0 1-5-5v-11.84a4.94 4.94 0 0 1 4.88-5.08h17.14a10.93 10.93 0 0 1 11.35 10.55v.5c0 6.08-4.38 10.86-11.35 10.86z"/></symbol><symbol id="ig" viewBox="0 0 255 255"><path id="Path_40" fill-rule="evenodd" d="M127.51 22.89a389.47 389.47 0 0 1 50.89 1.4 65.7 65.7 0 0 1 24 4.18 49.68 49.68 0 0 1 24 24 65.7 65.7 0 0 1 4.18 24c0 12.72 1.4 17 1.4 50.89a389.38 389.38 0 0 1-1.4 50.89 65.72 65.72 0 0 1-4.18 24 49.63 49.63 0 0 1-24 24.12 65.5 65.5 0 0 1-24 4.19c-12.72 0-17 1.39-50.89 1.39a389.37 389.37 0 0 1-50.89-1.39 65.52 65.52 0 0 1-24-4.19 49.68 49.68 0 0 1-24.11-24 65.7 65.7 0 0 1-4.18-24c0-12.72-1.4-17-1.4-50.89a389.38 389.38 0 0 1 1.4-50.89 65.72 65.72 0 0 1 4.18-24 51 51 0 0 1 9.9-14.14 23.92 23.92 0 0 1 14.15-9.9 65.42 65.42 0 0 1 24-4.18A389.38 389.38 0 0 1 127.51 23m0-22.76a416.83 416.83 0 0 0-52.3 1.4 87.13 87.13 0 0 0-31.1 5.64 55.51 55.51 0 0 0-22.63 14.2A55.44 55.44 0 0 0 7.34 44.09a64.32 64.32 0 0 0-5.67 31.12 416.83 416.83 0 0 0-1.4 52.3 417 417 0 0 0 1.4 52.31 87.37 87.37 0 0 0 5.67 31.05 55.47 55.47 0 0 0 14.14 22.62 55.5 55.5 0 0 0 22.61 14.2 87.21 87.21 0 0 0 31.1 5.64 417.2 417.2 0 0 0 52.32 1.4 417 417 0 0 0 52.31-1.4 87.13 87.13 0 0 0 31.1-5.64 59.33 59.33 0 0 0 36.77-36.82 87.21 87.21 0 0 0 5.64-31.1c0-14.15 1.4-18.39 1.4-52.32a417 417 0 0 0-1.4-52.31A87.13 87.13 0 0 0 247.69 44a55.36 55.36 0 0 0-14.15-22.63 55.29 55.29 0 0 0-22.67-14.03 87.37 87.37 0 0 0-31.05-5.67 417 417 0 0 0-52.31-1.4m0 62.2a64 64 0 0 0-65 62.93v2.11a65 65 0 1 0 65-65m0 107.39A41.65 41.65 0 0 1 85.1 129v-1.46A41.66 41.66 0 0 1 126 85.09h1.52a41.67 41.67 0 0 1 42.4 40.91v1.52a41.66 41.66 0 0 1-40.92 42.4h-1.52m67.89-125.83a15.55 15.55 0 1 0 15.5 15.61 15.69 15.69 0 0 0-15.55-15.55"/></symbol><symbol id="hamburger-icon" viewBox="0 0 255 255"><g id="Symbol_16_2"><path id="Menu" d="M0 223.13a15.94 15.94 0 0 1 15.94-15.93h127.5a15.93 15.93 0 0 1 15.93 15.93 15.93 15.93 0 0 1-15.93 15.93H15.94A15.94 15.94 0 0 1 0 223.13zm0-95.63a15.94 15.94 0 0 1 15.94-15.94h223.12A15.94 15.94 0 0 1 255 127.5a15.94 15.94 0 0 1-15.94 15.94H15.94A15.94 15.94 0 0 1 0 127.5zm0-95.62a15.94 15.94 0 0 1 15.94-15.94h223.12A15.94 15.94 0 0 1 255 31.87a15.94 15.94 0 0 1-15.94 15.93H15.94A15.94 15.94 0 0 1 0 31.88z"/></g></symbol><symbol id="arrow" viewBox="0 0 255 255"><g id="Symbol_134_1"><path id="Icon" fill-rule="evenodd" d="M147.49 127.5L49 226.58 79.17 255l112.65-113.3L206 127.5l-14.14-14.22L79.17 0 49 28.42z"/></g></symbol><symbol id="search" viewBox="0 0 255 255"><path fill-rule="evenodd" d="M189.41 167.14L255 232.81l-22.08 22.13-65.62-65.63 2.07-15.23 20.04-6.94z"/><path fill-rule="evenodd" d="M105 .06a104.88 104.88 0 1 0 104.82 104.88A104.88 104.88 0 0 0 105 .06zm0 188.78a83.9 83.9 0 1 1 83.9-83.9 83.9 83.9 0 0 1-83.9 83.9z"/></symbol><symbol id="shopping-cart" viewBox="0 0 255 255"><path fill-rule="evenodd" d="M98.73 188.89a27.16 27.16 0 1 0 23.37 23.37 27.22 27.22 0 0 0-23.37-23.37zM249 42.2H52.57A11.63 11.63 0 0 1 41.19 33l-3.42-16.25A6.21 6.21 0 0 0 31.83 12H6a6 6 0 0 0-6 6.8 6.18 6.18 0 0 0 6.27 5.3h17.94a3.33 3.33 0 0 1 3.27 2.64c4.25 20.05 31.21 147.44 31.21 147.44.77 3.71 3.25 6.83 6.32 6.79h150.84a6 6 0 1 0 0-12.07h-135a13.43 13.43 0 0 1-13.15-10.66 11.57 11.57 0 0 1-.24-2.32 11.17 11.17 0 0 1 11.17-11.15h149.28a6.24 6.24 0 0 0 5.85-4.71l21.12-90.5A6.32 6.32 0 0 0 249 42.2zm-59.76 146.69a27.16 27.16 0 1 0 23.36 23.37 27.22 27.22 0 0 0-23.36-23.37z"/></symbol><symbol id="socks" viewBox="0 0 255 255"><path fill-rule="evenodd" d="M133.84 187.17a45.28 45.28 0 0 0-5.6-6.85l-23.1-23.09a13.06 13.06 0 0 1-3.85-9.27V65.82a17 17 0 0 0-17-17H30.82a17 17 0 0 0-17 17v111a30.91 30.91 0 0 0 9 21.84L40 215.79 65.13 241l1.23 1.23c.53.53 1.07 1 1.62 1.54l.25.22c.48.42 1 .84 1.44 1.24a.18.18 0 0 1 .07.05 43.77 43.77 0 0 0 55.13 0q.75-.62 1.47-1.26l.23-.2c.55-.5 1.09-1 1.62-1.54.91-.91 1.78-1.86 2.6-2.84a43.94 43.94 0 0 0 3-52.17zm-90.94.77a2.36 2.36 0 0 1-4 1.61l-3.48-3.48a13.1 13.1 0 0 1-3.84-9.26v-8.93a2.36 2.36 0 0 1 4.23-1.44 36.08 36.08 0 0 1 7.12 21.45zm29.84 26.83a5.31 5.31 0 0 1-8 .61L59.31 210a5.32 5.32 0 0 1-1.31-5.43 53.79 53.79 0 0 0 2.65-16.68 54.09 54.09 0 0 0-25.15-45.55 8.18 8.18 0 0 1-3.95-7v-40.4a5.23 5.23 0 0 1 5.23-5.22h11a6.54 6.54 0 0 0 6.58-5.59A6.36 6.36 0 0 0 48 77H36.78a5.23 5.23 0 0 1-5.23-5.23 5.23 5.23 0 0 1 5.23-5.22h41.49a5.23 5.23 0 1 1 0 10.45h-11a6.53 6.53 0 0 0-6.57 5.58 6.35 6.35 0 0 0 6.3 7.14h11.27a5.23 5.23 0 0 1 5.23 5.22v53a30.73 30.73 0 0 0 9 21.83l11.36 11.36a5.74 5.74 0 0 1-1.61 9.24 80.43 80.43 0 0 0-29.51 24.4zm50.31-.48q-.08.63-.18 1.26c-.05.26-.09.51-.14.77-.09.45-.2.9-.31 1.34 0 .21-.1.43-.16.64-.18.65-.38 1.29-.61 1.92a3.45 3.45 0 0 0-.14.34c-.2.52-.41 1-.65 1.54-.1.22-.21.44-.32.66-.19.4-.4.79-.62 1.19-.13.23-.26.46-.4.68-.22.38-.46.75-.7 1.11l-.45.65c-.27.38-.56.76-.86 1.12-.14.18-.28.37-.43.54-.45.54-.93 1.06-1.43 1.57s-1.2 1.13-1.83 1.65c-.25.21-.52.4-.77.59s-.76.59-1.16.86-.7.45-1 .66-.64.4-1 .58-.82.43-1.23.63l-.87.41c-.45.2-.9.38-1.35.55l-.83.29c-.47.16-.94.3-1.42.43l-.86.22c-.47.11-.94.22-1.42.3-.32.06-.64.1-1 .14s-.91.14-1.37.17-.78.05-1.17.06h-2.88c-10.34-.81-9.55-9.57-5.94-14.81A64.51 64.51 0 0 1 109.08 207a13.74 13.74 0 0 0 2-1c1.14-.53 2.31-1 3.49-1.5 7.61-1.86 8.52 9 8.52 9 .02.27-.01.5-.04.79z"/><path fill-rule="evenodd" d="M234.06 138.41a44.75 44.75 0 0 0-5.61-6.85l-23.1-23.09a13.06 13.06 0 0 1-3.84-9.28V17.05A17 17 0 0 0 184.45 0H131a17 17 0 0 0-17 17.05V128a30.87 30.87 0 0 0 9 21.83L140.18 167l25.16 25.17 1.23 1.23c.53.53 1.06 1 1.61 1.54a2.75 2.75 0 0 1 .26.22c.47.42 1 .84 1.44 1.23a.18.18 0 0 0 .07.05 43.75 43.75 0 0 0 55.13 0c.5-.41 1-.83 1.47-1.26l.23-.2c.55-.5 1.09-1 1.61-1.54.92-.91 1.78-1.86 2.6-2.84a43.92 43.92 0 0 0 3.07-52.19zm-90.95.76a2.35 2.35 0 0 1-4 1.61l-3.48-3.48a13.1 13.1 0 0 1-3.84-9.26v-8.93a2.36 2.36 0 0 1 4.23-1.44 36 36 0 0 1 7.11 21.44zm29.81 26.88a5.31 5.31 0 0 1-8 .56l-5.39-5.39a5.29 5.29 0 0 1-1.29-5.39 53.8 53.8 0 0 0-22.68-62.36 8.23 8.23 0 0 1-3.79-7v-40.3a5.23 5.23 0 0 1 5.23-5.23h11a6.54 6.54 0 0 0 6.6-5.72 6.36 6.36 0 0 0-6.32-7H137a5.23 5.23 0 0 1-5.23-5.22 5.23 5.23 0 0 1 5.23-5.22h41.49a5.23 5.23 0 0 1 5.22 5.22 5.23 5.23 0 0 1-5.22 5.23h-11a6.53 6.53 0 0 0-6.55 5.77 6.34 6.34 0 0 0 6.32 7h11.23a5.23 5.23 0 0 1 5.22 5.23v53a30.71 30.71 0 0 0 9 21.84l11.35 11.35a5.72 5.72 0 0 1-1.5 9.2 80.43 80.43 0 0 0-29.64 24.43zm50.35-.53c-.05.42-.12.84-.19 1.26 0 .26-.08.51-.13.77-.09.45-.2.89-.31 1.34-.06.21-.1.43-.16.64-.18.64-.39 1.28-.62 1.92l-.13.33c-.2.53-.42 1-.65 1.55-.1.22-.21.44-.32.66-.2.4-.4.79-.62 1.18s-.27.46-.4.69-.46.74-.7 1.11l-.45.65c-.28.38-.57.75-.86 1.12-.15.18-.28.37-.43.54-.46.54-.93 1.06-1.43 1.56s-1.2 1.14-1.83 1.66c-.25.21-.52.4-.78.59s-.76.59-1.15.86-.7.45-1.06.66-.63.4-1 .58-.82.43-1.24.63l-.86.41c-.45.2-.9.37-1.36.54-.27.11-.55.21-.83.3-.47.16-.94.3-1.41.43l-.86.22c-.47.11-.95.22-1.42.3s-.64.1-1 .14-.91.13-1.37.17-.78 0-1.18.06h-2.87c-10.34-.81-9.55-9.57-5.95-14.81a64.4 64.4 0 0 1 19.52-15.34 14.76 14.76 0 0 0 2-1c1.15-.53 2.31-1 3.49-1.5 7.61-1.86 8.53 9 8.53 9 .09.26.06.52.03.78z"/></symbol><symbol id="twitter" viewBox="0 0 255 255"><path id="Path_39" fill-rule="evenodd" d="M80.75 230.91A147.44 147.44 0 0 0 229.5 84.82v-8.36a2.8 2.8 0 0 1 1.09-2.23 114.84 114.84 0 0 0 18.49-18.12 2.83 2.83 0 0 0-3.08-4.45c-3 1-5.95 1.89-9 2.65a2.83 2.83 0 0 1-2.67-4.76 55.52 55.52 0 0 0 10.33-13.77 2.84 2.84 0 0 0-3.74-3.88A129.47 129.47 0 0 1 217 40.61a2.86 2.86 0 0 1-2.78-.84 50.6 50.6 0 0 0-37.1-15.69 53.22 53.22 0 0 0-52.46 52.42 27.14 27.14 0 0 0 .42 7.69 2.84 2.84 0 0 1-3 3.39A146.42 146.42 0 0 1 21.15 35.89a2.83 2.83 0 0 0-4.74.66 54.2 54.2 0 0 0-5.05 23 56.32 56.32 0 0 0 16 38 2.84 2.84 0 0 1-2.65 4.76 48 48 0 0 1-14.75-6 51.73 51.73 0 0 0 29.94 47 2.83 2.83 0 0 1-1.34 5.39h-.4a24.76 24.76 0 0 1-4.87-.18 2.81 2.81 0 0 0-2.92 3.93 53.65 53.65 0 0 0 40.27 31 2.83 2.83 0 0 1 1.19 5.13 107 107 0 0 1-59 18.23h-1.21a2.82 2.82 0 0 0-1.38 5.24 133.74 133.74 0 0 0 70.59 18.79"/></symbol><symbol id="thumbs-up" viewBox="0 0 255 255"><path d="M51.16 167.5c5.3-.17 7-4.1 6.84-8.89v-11.13c.17-21.73 9.76-31.65 31.66-32 10.26 0 19.5-2.91 25.15-11.64a84.21 84.21 0 0 0 10.78-22.74c4.62-16.09 8-32.34 12.15-48.6 2.73-11.12 10.6-16.59 20.19-14.2 9.06 2.4 13.51 10.78 10.95 21.56-1.89 7.7-3.77 15.4-5.48 23.1-1 4.62-1 9.58 4.79 10.95s8-2.57 9.07-7.53c1-5.3 2.4-10.61 3.76-15.74 6.34-25.66 2.91-34.39-19.5-47.22h-15.23c-14.71 6.16-21.39 17.45-24.47 32.85-3.25 16.59-8.21 32.85-13 49.1-3.08 10.61-9.92 16.26-21.9 15.92-16.43-.52-29.43 6.67-38.16 21a8.73 8.73 0 0 1-6.67 3.59C22.07 124.38 0 135.72 0 151.25v49.45c.54 7.11 4.14 10.72 7.39 14.31 4.05 3.48 10.06 1.43 10.06 1.43s4-2.41 1.37-10.44c-1.48-3.85-4.29-5.76-4.11-17.79-.68-8.22-.17-16.43-.17-24.64 0-18.48 10.44-26.18 29.26-21.22v15.91c0 5.14 1.37 9.41 7.36 9.24z"/><path d="M253.06 108.81c-5-12.14-14.89-16.42-27.21-16.25-22.41.17-44.83-.17-67.07.86-15.06.68-24.47 14.54-21.9 29.25.34 1.89.34 3.77.69 6-14.38-.34-25.5 4.28-29.61 18.31-3.93 13.86 2.4 23.95 14.38 31-6.68 15.4-1 26.69 10.78 35.42-7.7 23.1 3.08 38 27 38 14.72 0 29.43.17 44.14 0 13.86-.34 24.64-10.44 25-23.78.17-5.13-1.72-10.44-2.74-16.08 12-9.24 14.54-21.39 7.7-35.42 12.32-9.93 15.57-21.56 8.38-35.76 11.83-11.01 14.91-20.59 10.46-31.55zm-50.82 128.33c-7.7.17-15.23 0-22.93 0s-15.22 0-23.09-.17c-6.68-.17-11.47-3.08-11.81-10.44-.34-6.67 4.11-10.78 12.15-10.95 15.23-.17 30.62-.17 45.85 0 7.87.17 12.49 4.62 12.49 10.95-.17 6.68-4.45 10.47-12.66 10.61zm8.56-36.27h-32.17c-10.78 0-21.56-.17-32.34.17-6.84.17-11.8-2.23-12.32-9.75-.68-7 3.6-11.47 11.47-11.64 22.07-.34 44.14-.17 66.21 0 6.85 0 11.29 3.59 11.64 10.78.17 6.5-4.45 10.44-12.49 10.44zm7-35.93h-83.5c-8.55 0-13.34-3.94-13.51-10.61 0-6.5 5-11.12 13.34-11.12q42.09-.27 84.18 0c8.56.17 13.35 4.44 13.52 10.95.17 6.84-4.78 10.78-14.02 10.78zm9.07-36.11c-21 0-41.92.17-63 0-8.89-.17-13.17-3.93-13.17-11q.25-10.51 13.35-10.78c10.78-.17 21.55 0 32.33 0 10.27 0 20.54-.17 30.63 0 8.38 0 13.35 4.28 13.35 11-.13 6.85-4.93 10.78-13.48 10.78zM81.79 236.8c-14.89-2.74-23.1-12.32-23.62-27.55v-8.55c0-5.31 0-10.95-7.35-10.78S44 196.08 44 201.21v5.13c0 24.64 13.35 41.92 35.08 44.83 5.13.69 11 1.37 12.32-5.47 1.34-7.02-4.31-8.05-9.61-8.9z"/></symbol></svg>