<svg xmlns="http://www.w3.org/2000/svg"><symbol id="card" viewBox="0 0 255 255"><path d="M30 80.69h87.86a7 7 0 1 0 0-14H30a7 7 0 0 0 0 14z"/><path fill-rule="evenodd" d="M232.31 36.43H22.69A22.69 22.69 0 0 0 0 59.12v136.76a22.69 22.69 0 0 0 22.69 22.69h209.62A22.69 22.69 0 0 0 255 195.88V59.12a22.69 22.69 0 0 0-22.69-22.69zM241 195.88a8.69 8.69 0 0 1-8.69 8.69H22.69a8.69 8.69 0 0 1-8.69-8.69V179a8.35 8.35 0 0 1 8.35-8.35h210.3A8.35 8.35 0 0 1 241 179zm0-71.54a8.35 8.35 0 0 1-8.35 8.35H22.35a8.35 8.35 0 0 1-8.35-8.35V59.12a8.69 8.69 0 0 1 8.69-8.69h209.62a8.69 8.69 0 0 1 8.69 8.69z"/></symbol><symbol id="close" viewBox="0 0 255 255"><rect width="82.33" height="17.77" x="86.34" y="14.38" rx="8.88"/><path d="M28.59 66.5h6.68a8.88 8.88 0 0 1 8.85 8.09L58.2 232.33a8.89 8.89 0 0 0 8.89 8.29h120.82a8.89 8.89 0 0 0 8.89-8.29l14.08-157.74a8.88 8.88 0 0 1 8.85-8.09h6.68a8.89 8.89 0 0 0 8.88-8.89 8.89 8.89 0 0 0-8.88-8.88H28.59a8.89 8.89 0 0 0-8.88 8.88 8.89 8.89 0 0 0 8.88 8.89z"/></symbol><symbol id="shopping-cart" viewBox="0 0 255 255"><path d="M211.32 62.9c-5.36-4.35-17.14 4.41-23.08 7a2.87 2.87 0 0 1-2.4 0c-3.56-1.71-12.1-6.43-16.49-7.87a2.85 2.85 0 0 1-2-2.91C172-4.23 83-4.19 87.63 59.11a2.86 2.86 0 0 1-2 2.91c-4.4 1.44-13 6.21-16.53 7.89a2.84 2.84 0 0 1-2.35 0C60.9 67.48 49 58.38 43.68 62.9a8.48 8.48 0 0 0-4 7.22V232A11.35 11.35 0 0 0 51 243.38h153A11.35 11.35 0 0 0 215.33 232V70.12a8.48 8.48 0 0 0-4.01-7.22zM127.7 28.23c22.94 1.35 23.23 21.3 22.51 39.1a2.86 2.86 0 0 1-1.59 2.44 2.86 2.86 0 0 1-2.55 0c-20.39-10.4-16.77-10.37-37.12 0a2.86 2.86 0 0 1-2.55 0 2.85 2.85 0 0 1-1.59-2.43c-.73-17.82-.42-37.77 22.51-39.11a2.67 2.67 0 0 1 .38 0zm67.78 198.15h-136a2.84 2.84 0 0 1-2.85-2.85V88.41a2.85 2.85 0 0 1 4.15-2.54c3.58 1.85 7.66 3.62 10.93 1.63l14.8-7.28a2.83 2.83 0 0 1 2.55 0c20.39 10.39 16.77 10.36 37.1 0a2.83 2.83 0 0 1 2.58 0c20.37 10.39 16.76 10.35 37.11 0a2.81 2.81 0 0 1 2.54 0l14.81 7.28c3.25 2 7.36.22 10.95-1.63a2.84 2.84 0 0 1 4.14 2.54v135.12a2.84 2.84 0 0 1-2.81 2.85z"/></symbol><symbol id="ig" viewBox="0 0 255 255"><path id="Path_40" fill-rule="evenodd" d="M127.51 22.89a389.47 389.47 0 0 1 50.89 1.4 65.7 65.7 0 0 1 24 4.18 49.68 49.68 0 0 1 24 24 65.7 65.7 0 0 1 4.18 24c0 12.72 1.4 17 1.4 50.89a389.38 389.38 0 0 1-1.4 50.89 65.72 65.72 0 0 1-4.18 24 49.63 49.63 0 0 1-24 24.12 65.5 65.5 0 0 1-24 4.19c-12.72 0-17 1.39-50.89 1.39a389.37 389.37 0 0 1-50.89-1.39 65.52 65.52 0 0 1-24-4.19 49.68 49.68 0 0 1-24.11-24 65.7 65.7 0 0 1-4.18-24c0-12.72-1.4-17-1.4-50.89a389.38 389.38 0 0 1 1.4-50.89 65.72 65.72 0 0 1 4.18-24 51 51 0 0 1 9.9-14.14 23.92 23.92 0 0 1 14.15-9.9 65.42 65.42 0 0 1 24-4.18A389.38 389.38 0 0 1 127.51 23m0-22.76a416.83 416.83 0 0 0-52.3 1.4 87.13 87.13 0 0 0-31.1 5.64 55.51 55.51 0 0 0-22.63 14.2A55.44 55.44 0 0 0 7.34 44.09a64.32 64.32 0 0 0-5.67 31.12 416.83 416.83 0 0 0-1.4 52.3 417 417 0 0 0 1.4 52.31 87.37 87.37 0 0 0 5.67 31.05 55.47 55.47 0 0 0 14.14 22.62 55.5 55.5 0 0 0 22.61 14.2 87.21 87.21 0 0 0 31.1 5.64 417.2 417.2 0 0 0 52.32 1.4 417 417 0 0 0 52.31-1.4 87.13 87.13 0 0 0 31.1-5.64 59.33 59.33 0 0 0 36.77-36.82 87.21 87.21 0 0 0 5.64-31.1c0-14.15 1.4-18.39 1.4-52.32a417 417 0 0 0-1.4-52.31A87.13 87.13 0 0 0 247.69 44a55.36 55.36 0 0 0-14.15-22.63 55.29 55.29 0 0 0-22.67-14.03 87.37 87.37 0 0 0-31.05-5.67 417 417 0 0 0-52.31-1.4m0 62.2a64 64 0 0 0-65 62.93v2.11a65 65 0 1 0 65-65m0 107.39A41.65 41.65 0 0 1 85.1 129v-1.46A41.66 41.66 0 0 1 126 85.09h1.52a41.67 41.67 0 0 1 42.4 40.91v1.52a41.66 41.66 0 0 1-40.92 42.4h-1.52m67.89-125.83a15.55 15.55 0 1 0 15.5 15.61 15.69 15.69 0 0 0-15.55-15.55"/></symbol><symbol id="coin" viewBox="0 0 255 255"><path fill-rule="evenodd" d="M254.28 115.24a101.7 101.7 0 0 0-2.7-14.28A104.12 104.12 0 0 0 151 23.5h-47a103.47 103.47 0 0 0-65 22.81 7.59 7.59 0 0 0-1.16 1.18 104.3 104.3 0 0 0-22.25 25.65 6.7 6.7 0 0 0-1.14 1.44l-.08.14a6.52 6.52 0 0 0-.73 1.74 103 103 0 0 0-10 24.69 7.27 7.27 0 0 0-.69 1.73A104.06 104.06 0 0 0 0 128.81a102.44 102.44 0 0 0 22.06 62.33 103.79 103.79 0 0 0 64.26 38.66 106.4 106.4 0 0 0 18.91 1.7H151a103.7 103.7 0 0 0 81.08-38.89 101.58 101.58 0 0 0 9.68-14.29 103.44 103.44 0 0 0 9.85-24.4 101.67 101.67 0 0 0 2.68-14.28 103.47 103.47 0 0 0 .71-12.14 105.53 105.53 0 0 0-.72-12.26zm-25.89-33.13a89.09 89.09 0 0 1 5.81 11.8 5.12 5.12 0 0 1-4.73 7h-16.89a10.85 10.85 0 0 1-10.24-7.38l-.39-1.1-.38-1L201 90l-.39-1-.61-1.59-.36-.85c-.24-.55-.47-1.1-.72-1.64-.1-.23-.21-.45-.31-.68-.2-.44-.39-.88-.6-1.31a4.44 4.44 0 0 1 4-6.37h16.59a11.36 11.36 0 0 1 9.79 5.55zm-53-41a89.16 89.16 0 0 1 28.93 14.21 3.83 3.83 0 0 1-2.26 6.91h-11.3a12.33 12.33 0 0 1-9.22-4.06l-.39-.42-.78-.85c-.88-.95-1.78-1.89-2.69-2.81l-.15-.15c-1.93-1.93-3.94-3.8-6-5.58a4.2 4.2 0 0 1 3.86-7.21zm-85-2.31h.13c1.2-.18 2.41-.33 3.63-.47l1-.11c.58-.06 1.15-.11 1.73-.15.9-.07 1.81-.13 2.72-.18h1.07c1 0 2.06-.06 3.1-.07h.23a89.69 89.69 0 0 1 89.66 89.7 89.36 89.36 0 0 1-15.78 50.82 90 90 0 0 1-32.5 28.76l-.25.13c-1.06.55-2.13 1.07-3.22 1.58l-.79.37c-.93.42-1.87.82-2.81 1.21l-1.33.55c-.8.31-1.6.61-2.41.9-1.14.42-2.3.81-3.47 1.18l-.38.12a89.69 89.69 0 1 1-40.31-174.3zm113 161.45A89.53 89.53 0 0 1 178 213.06a4.78 4.78 0 0 1-4.62-8.13 105.24 105.24 0 0 0 9.62-9.85 7.09 7.09 0 0 1 5.39-2.47h12.49a4.25 4.25 0 0 1 2.56 7.68zm28.32-33.7q-1.75 3.61-3.82 7a9.69 9.69 0 0 1-8.29 4.68h-16.74a4.94 4.94 0 0 1-4.52-7c1.3-2.79 2.48-5.66 3.53-8.58a13.35 13.35 0 0 1 12.56-8.83h9.29a8.87 8.87 0 0 1 8.04 12.77zm8.74-32.91a6.39 6.39 0 0 1-6.38 6h-21.01a5.26 5.26 0 0 1-5.27-5.58v-2.03c0-.56.05-1.13.07-1.7v-5.58c0-.53 0-1.07-.06-1.6s0-.83 0-1.24v-.45a5.85 5.85 0 0 1 5.83-6.19h18a9 9 0 0 1 9 8.64c.05 1.2.08 2.41.08 3.62q0 3.09-.21 6.15z"/><path fill-rule="evenodd" d="M84.88 170.12a11.48 11.48 0 0 1 5.84 10.09v1.3c0 2.59 1.5 4.09 4.08 4h15.26a4.09 4.09 0 0 0 4.09-4.09v-.22a11.77 11.77 0 0 1 6.8-10.59 27.44 27.44 0 0 0 15.67-23.92c-.41-30.11-38-27-40.18-37.33-.68-2.59 1.23-6 6.13-6.13 6-.14 8.85 3.27 9.94 8.58.41 2.59 1.77 3.82 4.36 3.13l14.44-3.54c2.32-.54 3.41-1.9 3.14-4.36-.58-6.5-3.15-16.67-13.26-22.22a11.57 11.57 0 0 1-6-10.16v-1a4.09 4.09 0 0 0-4.09-4.09H95.89c-2.58 0-4.08 1.37-4.08 4.09v.8a11.63 11.63 0 0 1-6.09 10.12c-12.4 6.9-12.7 20.82-12.58 23.68.55 30.11 36.38 24.79 39 36.1.69 2.73-1.09 7.22-8.72 7.36-7.35.13-9.39-3.54-10.07-9.81-.41-2.73-1.78-3.68-4.23-3.14l-14.44 3.41a4 4 0 0 0-3.27 4.36c.66 7.09 3.07 17.84 13.47 23.58z"/></symbol><symbol id="shipping" viewBox="0 0 255 255"><path d="M249.35 125.8L237.85 91a8.21 8.21 0 0 0-7.59-5.49h-29.59a6 6 0 0 1-6-6V68.8a3.52 3.52 0 0 0-3.4-3.66H78.86a3.52 3.52 0 0 0-3.4 3.66V164a3.41 3.41 0 0 0 3.4 3.4H90a6.94 6.94 0 0 1 6.73 5.35 22.48 22.48 0 0 0 42.83 2.67 12.66 12.66 0 0 1 11.83-8h24a12.64 12.64 0 0 1 11.84 8 22.48 22.48 0 0 0 42.32-.93 10.49 10.49 0 0 1 9.94-7.11h8.23a3.93 3.93 0 0 0 3.92-3.93V141a49.66 49.66 0 0 0-2.29-15.2zm-130.74 52.3a10.72 10.72 0 1 1 10.72-10.72 10.61 10.61 0 0 1-10.72 10.72zm90 0a10.72 10.72 0 0 1 0-21.44 10.72 10.72 0 0 1 0 21.44zm24.58-56.74h-35a3 3 0 0 1-3.14-3.14V100.7a3 3 0 0 1 3.14-3.14H225a3.39 3.39 0 0 1 3.14 2.09l6.54 19.61a1.69 1.69 0 0 1-1.54 2.1z"/><rect width="26.41" height="12.55" x="34.94" y="84.75" rx="6.28"/><rect width="42.1" height="12.55" x="19.25" y="110.11" rx="6.28"/><rect width="58.05" height="12.55" x="3.3" y="135.21" rx="6.28"/></symbol><symbol id="search" viewBox="0 0 255 255"><path fill-rule="evenodd" d="M189.41 167.14L255 232.81l-22.08 22.13-65.62-65.63 2.07-15.23 20.04-6.94z"/><path fill-rule="evenodd" d="M105 .06a104.88 104.88 0 1 0 104.82 104.88A104.88 104.88 0 0 0 105 .06zm0 188.78a83.9 83.9 0 1 1 83.9-83.9 83.9 83.9 0 0 1-83.9 83.9z"/></symbol><symbol id="fb" viewBox="0 0 255 255"><path id="Path_38" fill-rule="evenodd" d="M147.33 247.79v-101.7a7.2 7.2 0 0 1 7.2-7.21h26.08a7.2 7.2 0 0 0 7.15-6.31l3.86-30.9a7.21 7.21 0 0 0-7.16-8.1h-29.93a7.2 7.2 0 0 1-7.2-7.21v-21.1c0-12.74 4.19-22.66 22.65-22.66h16.87a7.2 7.2 0 0 0 7.2-7.21V8.44a7.2 7.2 0 0 0-6.79-7.2c-7.1-.41-17.49-1.12-28.6-1.12a54.66 54.66 0 0 0-58.08 59.21 4.87 4.87 0 0 1 0 .54v26.49a7.2 7.2 0 0 1-7.2 7.21H68.15a7.2 7.2 0 0 0-7.2 7.21v30.9a7.2 7.2 0 0 0 7.2 7.2h25.23a7.21 7.21 0 0 1 7.21 7.21v101.69a7.21 7.21 0 0 0 7.2 7.21h32.33a7.21 7.21 0 0 0 7.21-7.2z"/></symbol><symbol id="logo" viewBox="0 0 255 255"><path d="M232.32 128.94a5 5 0 0 1-1.73-6.73 5.29 5.29 0 0 1 1.44-1.54c9.43-6 15.69-16.85 15.69-31.09 0-18.1-14-39.47-46-39.47h-72.87a4.77 4.77 0 0 0-4.85 4.81v28.4a4.77 4.77 0 0 0 4.82 4.81h62a9.5 9.5 0 0 1 9.25 9.53c0 5.58-4.43 10-9.25 10H56.08a4.93 4.93 0 0 1-4.91-4.91v-9.23a4.93 4.93 0 0 1 4.91-4.91h44A4.93 4.93 0 0 0 105 83.7V55.41a4.77 4.77 0 0 0-4.82-4.82H9.2a4.76 4.76 0 0 0-4.9 4.72v144.28a4.76 4.76 0 0 0 4.81 4.82h37.15a4.77 4.77 0 0 0 4.91-4.72V150.6a4.93 4.93 0 0 1 4.91-4.91h63.05a4.93 4.93 0 0 1 4.9 4.91V200a4.78 4.78 0 0 0 4.72 4.91H205c31.09 0 45.72-20.41 45.72-42 0-15.21-7.41-27.72-18.38-34zm-40.14 37.93h-16.46a4.77 4.77 0 0 1-4.81-4.81V150.6a4.77 4.77 0 0 1 4.72-4.91h16.55a10.58 10.58 0 0 1 11 10.2v.49c0 5.87-4.24 10.49-11 10.49z"/></symbol><symbol id="twitter" viewBox="0 0 255 255"><path id="Path_39" fill-rule="evenodd" d="M80.75 230.91A147.44 147.44 0 0 0 229.5 84.82v-8.36a2.8 2.8 0 0 1 1.09-2.23 114.84 114.84 0 0 0 18.49-18.12 2.83 2.83 0 0 0-3.08-4.45c-3 1-5.95 1.89-9 2.65a2.83 2.83 0 0 1-2.67-4.76 55.52 55.52 0 0 0 10.33-13.77 2.84 2.84 0 0 0-3.74-3.88A129.47 129.47 0 0 1 217 40.61a2.86 2.86 0 0 1-2.78-.84 50.6 50.6 0 0 0-37.1-15.69 53.22 53.22 0 0 0-52.46 52.42 27.14 27.14 0 0 0 .42 7.69 2.84 2.84 0 0 1-3 3.39A146.42 146.42 0 0 1 21.15 35.89a2.83 2.83 0 0 0-4.74.66 54.2 54.2 0 0 0-5.05 23 56.32 56.32 0 0 0 16 38 2.84 2.84 0 0 1-2.65 4.76 48 48 0 0 1-14.75-6 51.73 51.73 0 0 0 29.94 47 2.83 2.83 0 0 1-1.34 5.39h-.4a24.76 24.76 0 0 1-4.87-.18 2.81 2.81 0 0 0-2.92 3.93 53.65 53.65 0 0 0 40.27 31 2.83 2.83 0 0 1 1.19 5.13 107 107 0 0 1-59 18.23h-1.21a2.82 2.82 0 0 0-1.38 5.24 133.74 133.74 0 0 0 70.59 18.79"/></symbol><symbol id="card" viewBox="0 0 255 255"><path d="M30 80.69h87.86a7 7 0 1 0 0-14H30a7 7 0 0 0 0 14z"/><path fill-rule="evenodd" d="M232.31 36.43H22.69A22.69 22.69 0 0 0 0 59.12v136.76a22.69 22.69 0 0 0 22.69 22.69h209.62A22.69 22.69 0 0 0 255 195.88V59.12a22.69 22.69 0 0 0-22.69-22.69zM241 195.88a8.69 8.69 0 0 1-8.69 8.69H22.69a8.69 8.69 0 0 1-8.69-8.69V179a8.35 8.35 0 0 1 8.35-8.35h210.3A8.35 8.35 0 0 1 241 179zm0-71.54a8.35 8.35 0 0 1-8.35 8.35H22.35a8.35 8.35 0 0 1-8.35-8.35V59.12a8.69 8.69 0 0 1 8.69-8.69h209.62a8.69 8.69 0 0 1 8.69 8.69z"/></symbol><symbol id="coin" viewBox="0 0 255 255"><path fill-rule="evenodd" d="M254.28 115.24a101.7 101.7 0 0 0-2.7-14.28A104.12 104.12 0 0 0 151 23.5h-47a103.47 103.47 0 0 0-65 22.81 7.59 7.59 0 0 0-1.16 1.18 104.3 104.3 0 0 0-22.25 25.65 6.7 6.7 0 0 0-1.14 1.44l-.08.14a6.52 6.52 0 0 0-.73 1.74 103 103 0 0 0-10 24.69 7.27 7.27 0 0 0-.69 1.73A104.06 104.06 0 0 0 0 128.81a102.44 102.44 0 0 0 22.06 62.33 103.79 103.79 0 0 0 64.26 38.66 106.4 106.4 0 0 0 18.91 1.7H151a103.7 103.7 0 0 0 81.08-38.89 101.58 101.58 0 0 0 9.68-14.29 103.44 103.44 0 0 0 9.85-24.4 101.67 101.67 0 0 0 2.68-14.28 103.47 103.47 0 0 0 .71-12.14 105.53 105.53 0 0 0-.72-12.26zm-25.89-33.13a89.09 89.09 0 0 1 5.81 11.8 5.12 5.12 0 0 1-4.73 7h-16.89a10.85 10.85 0 0 1-10.24-7.38l-.39-1.1-.38-1L201 90l-.39-1-.61-1.59-.36-.85c-.24-.55-.47-1.1-.72-1.64-.1-.23-.21-.45-.31-.68-.2-.44-.39-.88-.6-1.31a4.44 4.44 0 0 1 4-6.37h16.59a11.36 11.36 0 0 1 9.79 5.55zm-53-41a89.16 89.16 0 0 1 28.93 14.21 3.83 3.83 0 0 1-2.26 6.91h-11.3a12.33 12.33 0 0 1-9.22-4.06l-.39-.42-.78-.85c-.88-.95-1.78-1.89-2.69-2.81l-.15-.15c-1.93-1.93-3.94-3.8-6-5.58a4.2 4.2 0 0 1 3.86-7.21zm-85-2.31h.13c1.2-.18 2.41-.33 3.63-.47l1-.11c.58-.06 1.15-.11 1.73-.15.9-.07 1.81-.13 2.72-.18h1.07c1 0 2.06-.06 3.1-.07h.23a89.69 89.69 0 0 1 89.66 89.7 89.36 89.36 0 0 1-15.78 50.82 90 90 0 0 1-32.5 28.76l-.25.13c-1.06.55-2.13 1.07-3.22 1.58l-.79.37c-.93.42-1.87.82-2.81 1.21l-1.33.55c-.8.31-1.6.61-2.41.9-1.14.42-2.3.81-3.47 1.18l-.38.12a89.69 89.69 0 1 1-40.31-174.3zm113 161.45A89.53 89.53 0 0 1 178 213.06a4.78 4.78 0 0 1-4.62-8.13 105.24 105.24 0 0 0 9.62-9.85 7.09 7.09 0 0 1 5.39-2.47h12.49a4.25 4.25 0 0 1 2.56 7.68zm28.32-33.7q-1.75 3.61-3.82 7a9.69 9.69 0 0 1-8.29 4.68h-16.74a4.94 4.94 0 0 1-4.52-7c1.3-2.79 2.48-5.66 3.53-8.58a13.35 13.35 0 0 1 12.56-8.83h9.29a8.87 8.87 0 0 1 8.04 12.77zm8.74-32.91a6.39 6.39 0 0 1-6.38 6h-21.01a5.26 5.26 0 0 1-5.27-5.58v-2.03c0-.56.05-1.13.07-1.7v-5.58c0-.53 0-1.07-.06-1.6s0-.83 0-1.24v-.45a5.85 5.85 0 0 1 5.83-6.19h18a9 9 0 0 1 9 8.64c.05 1.2.08 2.41.08 3.62q0 3.09-.21 6.15z"/><path fill-rule="evenodd" d="M84.88 170.12a11.48 11.48 0 0 1 5.84 10.09v1.3c0 2.59 1.5 4.09 4.08 4h15.26a4.09 4.09 0 0 0 4.09-4.09v-.22a11.77 11.77 0 0 1 6.8-10.59 27.44 27.44 0 0 0 15.67-23.92c-.41-30.11-38-27-40.18-37.33-.68-2.59 1.23-6 6.13-6.13 6-.14 8.85 3.27 9.94 8.58.41 2.59 1.77 3.82 4.36 3.13l14.44-3.54c2.32-.54 3.41-1.9 3.14-4.36-.58-6.5-3.15-16.67-13.26-22.22a11.57 11.57 0 0 1-6-10.16v-1a4.09 4.09 0 0 0-4.09-4.09H95.89c-2.58 0-4.08 1.37-4.08 4.09v.8a11.63 11.63 0 0 1-6.09 10.12c-12.4 6.9-12.7 20.82-12.58 23.68.55 30.11 36.38 24.79 39 36.1.69 2.73-1.09 7.22-8.72 7.36-7.35.13-9.39-3.54-10.07-9.81-.41-2.73-1.78-3.68-4.23-3.14l-14.44 3.41a4 4 0 0 0-3.27 4.36c.66 7.09 3.07 17.84 13.47 23.58z"/></symbol><symbol id="close" viewBox="0 0 255 255"><rect width="82.33" height="17.77" x="86.34" y="14.38" rx="8.88"/><path d="M28.59 66.5h6.68a8.88 8.88 0 0 1 8.85 8.09L58.2 232.33a8.89 8.89 0 0 0 8.89 8.29h120.82a8.89 8.89 0 0 0 8.89-8.29l14.08-157.74a8.88 8.88 0 0 1 8.85-8.09h6.68a8.89 8.89 0 0 0 8.88-8.89 8.89 8.89 0 0 0-8.88-8.88H28.59a8.89 8.89 0 0 0-8.88 8.88 8.89 8.89 0 0 0 8.88 8.89z"/></symbol><symbol id="fb" viewBox="0 0 255 255"><path id="Path_38" fill-rule="evenodd" d="M147.33 247.79v-101.7a7.2 7.2 0 0 1 7.2-7.21h26.08a7.2 7.2 0 0 0 7.15-6.31l3.86-30.9a7.21 7.21 0 0 0-7.16-8.1h-29.93a7.2 7.2 0 0 1-7.2-7.21v-21.1c0-12.74 4.19-22.66 22.65-22.66h16.87a7.2 7.2 0 0 0 7.2-7.21V8.44a7.2 7.2 0 0 0-6.79-7.2c-7.1-.41-17.49-1.12-28.6-1.12a54.66 54.66 0 0 0-58.08 59.21 4.87 4.87 0 0 1 0 .54v26.49a7.2 7.2 0 0 1-7.2 7.21H68.15a7.2 7.2 0 0 0-7.2 7.21v30.9a7.2 7.2 0 0 0 7.2 7.2h25.23a7.21 7.21 0 0 1 7.21 7.21v101.69a7.21 7.21 0 0 0 7.2 7.21h32.33a7.21 7.21 0 0 0 7.21-7.2z"/></symbol><symbol id="search" viewBox="0 0 255 255"><path fill-rule="evenodd" d="M189.41 167.14L255 232.81l-22.08 22.13-65.62-65.63 2.07-15.23 20.04-6.94z"/><path fill-rule="evenodd" d="M105 .06a104.88 104.88 0 1 0 104.82 104.88A104.88 104.88 0 0 0 105 .06zm0 188.78a83.9 83.9 0 1 1 83.9-83.9 83.9 83.9 0 0 1-83.9 83.9z"/></symbol><symbol id="logo" viewBox="0 0 255 255"><path d="M232.32 128.94a5 5 0 0 1-1.73-6.73 5.29 5.29 0 0 1 1.44-1.54c9.43-6 15.69-16.85 15.69-31.09 0-18.1-14-39.47-46-39.47h-72.87a4.77 4.77 0 0 0-4.85 4.81v28.4a4.77 4.77 0 0 0 4.82 4.81h62a9.5 9.5 0 0 1 9.25 9.53c0 5.58-4.43 10-9.25 10H56.08a4.93 4.93 0 0 1-4.91-4.91v-9.23a4.93 4.93 0 0 1 4.91-4.91h44A4.93 4.93 0 0 0 105 83.7V55.41a4.77 4.77 0 0 0-4.82-4.82H9.2a4.76 4.76 0 0 0-4.9 4.72v144.28a4.76 4.76 0 0 0 4.81 4.82h37.15a4.77 4.77 0 0 0 4.91-4.72V150.6a4.93 4.93 0 0 1 4.91-4.91h63.05a4.93 4.93 0 0 1 4.9 4.91V200a4.78 4.78 0 0 0 4.72 4.91H205c31.09 0 45.72-20.41 45.72-42 0-15.21-7.41-27.72-18.38-34zm-40.14 37.93h-16.46a4.77 4.77 0 0 1-4.81-4.81V150.6a4.77 4.77 0 0 1 4.72-4.91h16.55a10.58 10.58 0 0 1 11 10.2v.49c0 5.87-4.24 10.49-11 10.49z"/></symbol><symbol id="ig" viewBox="0 0 255 255"><path id="Path_40" fill-rule="evenodd" d="M127.51 22.89a389.47 389.47 0 0 1 50.89 1.4 65.7 65.7 0 0 1 24 4.18 49.68 49.68 0 0 1 24 24 65.7 65.7 0 0 1 4.18 24c0 12.72 1.4 17 1.4 50.89a389.38 389.38 0 0 1-1.4 50.89 65.72 65.72 0 0 1-4.18 24 49.63 49.63 0 0 1-24 24.12 65.5 65.5 0 0 1-24 4.19c-12.72 0-17 1.39-50.89 1.39a389.37 389.37 0 0 1-50.89-1.39 65.52 65.52 0 0 1-24-4.19 49.68 49.68 0 0 1-24.11-24 65.7 65.7 0 0 1-4.18-24c0-12.72-1.4-17-1.4-50.89a389.38 389.38 0 0 1 1.4-50.89 65.72 65.72 0 0 1 4.18-24 51 51 0 0 1 9.9-14.14 23.92 23.92 0 0 1 14.15-9.9 65.42 65.42 0 0 1 24-4.18A389.38 389.38 0 0 1 127.51 23m0-22.76a416.83 416.83 0 0 0-52.3 1.4 87.13 87.13 0 0 0-31.1 5.64 55.51 55.51 0 0 0-22.63 14.2A55.44 55.44 0 0 0 7.34 44.09a64.32 64.32 0 0 0-5.67 31.12 416.83 416.83 0 0 0-1.4 52.3 417 417 0 0 0 1.4 52.31 87.37 87.37 0 0 0 5.67 31.05 55.47 55.47 0 0 0 14.14 22.62 55.5 55.5 0 0 0 22.61 14.2 87.21 87.21 0 0 0 31.1 5.64 417.2 417.2 0 0 0 52.32 1.4 417 417 0 0 0 52.31-1.4 87.13 87.13 0 0 0 31.1-5.64 59.33 59.33 0 0 0 36.77-36.82 87.21 87.21 0 0 0 5.64-31.1c0-14.15 1.4-18.39 1.4-52.32a417 417 0 0 0-1.4-52.31A87.13 87.13 0 0 0 247.69 44a55.36 55.36 0 0 0-14.15-22.63 55.29 55.29 0 0 0-22.67-14.03 87.37 87.37 0 0 0-31.05-5.67 417 417 0 0 0-52.31-1.4m0 62.2a64 64 0 0 0-65 62.93v2.11a65 65 0 1 0 65-65m0 107.39A41.65 41.65 0 0 1 85.1 129v-1.46A41.66 41.66 0 0 1 126 85.09h1.52a41.67 41.67 0 0 1 42.4 40.91v1.52a41.66 41.66 0 0 1-40.92 42.4h-1.52m67.89-125.83a15.55 15.55 0 1 0 15.5 15.61 15.69 15.69 0 0 0-15.55-15.55"/></symbol><symbol id="twitter" viewBox="0 0 255 255"><path id="Path_39" fill-rule="evenodd" d="M80.75 230.91A147.44 147.44 0 0 0 229.5 84.82v-8.36a2.8 2.8 0 0 1 1.09-2.23 114.84 114.84 0 0 0 18.49-18.12 2.83 2.83 0 0 0-3.08-4.45c-3 1-5.95 1.89-9 2.65a2.83 2.83 0 0 1-2.67-4.76 55.52 55.52 0 0 0 10.33-13.77 2.84 2.84 0 0 0-3.74-3.88A129.47 129.47 0 0 1 217 40.61a2.86 2.86 0 0 1-2.78-.84 50.6 50.6 0 0 0-37.1-15.69 53.22 53.22 0 0 0-52.46 52.42 27.14 27.14 0 0 0 .42 7.69 2.84 2.84 0 0 1-3 3.39A146.42 146.42 0 0 1 21.15 35.89a2.83 2.83 0 0 0-4.74.66 54.2 54.2 0 0 0-5.05 23 56.32 56.32 0 0 0 16 38 2.84 2.84 0 0 1-2.65 4.76 48 48 0 0 1-14.75-6 51.73 51.73 0 0 0 29.94 47 2.83 2.83 0 0 1-1.34 5.39h-.4a24.76 24.76 0 0 1-4.87-.18 2.81 2.81 0 0 0-2.92 3.93 53.65 53.65 0 0 0 40.27 31 2.83 2.83 0 0 1 1.19 5.13 107 107 0 0 1-59 18.23h-1.21a2.82 2.82 0 0 0-1.38 5.24 133.74 133.74 0 0 0 70.59 18.79"/></symbol><symbol id="shipping" viewBox="0 0 255 255"><path d="M249.35 125.8L237.85 91a8.21 8.21 0 0 0-7.59-5.49h-29.59a6 6 0 0 1-6-6V68.8a3.52 3.52 0 0 0-3.4-3.66H78.86a3.52 3.52 0 0 0-3.4 3.66V164a3.41 3.41 0 0 0 3.4 3.4H90a6.94 6.94 0 0 1 6.73 5.35 22.48 22.48 0 0 0 42.83 2.67 12.66 12.66 0 0 1 11.83-8h24a12.64 12.64 0 0 1 11.84 8 22.48 22.48 0 0 0 42.32-.93 10.49 10.49 0 0 1 9.94-7.11h8.23a3.93 3.93 0 0 0 3.92-3.93V141a49.66 49.66 0 0 0-2.29-15.2zm-130.74 52.3a10.72 10.72 0 1 1 10.72-10.72 10.61 10.61 0 0 1-10.72 10.72zm90 0a10.72 10.72 0 0 1 0-21.44 10.72 10.72 0 0 1 0 21.44zm24.58-56.74h-35a3 3 0 0 1-3.14-3.14V100.7a3 3 0 0 1 3.14-3.14H225a3.39 3.39 0 0 1 3.14 2.09l6.54 19.61a1.69 1.69 0 0 1-1.54 2.1z"/><rect width="26.41" height="12.55" x="34.94" y="84.75" rx="6.28"/><rect width="42.1" height="12.55" x="19.25" y="110.11" rx="6.28"/><rect width="58.05" height="12.55" x="3.3" y="135.21" rx="6.28"/></symbol><symbol id="shopping-cart" viewBox="0 0 255 255"><path d="M211.32 62.9c-5.36-4.35-17.14 4.41-23.08 7a2.87 2.87 0 0 1-2.4 0c-3.56-1.71-12.1-6.43-16.49-7.87a2.85 2.85 0 0 1-2-2.91C172-4.23 83-4.19 87.63 59.11a2.86 2.86 0 0 1-2 2.91c-4.4 1.44-13 6.21-16.53 7.89a2.84 2.84 0 0 1-2.35 0C60.9 67.48 49 58.38 43.68 62.9a8.48 8.48 0 0 0-4 7.22V232A11.35 11.35 0 0 0 51 243.38h153A11.35 11.35 0 0 0 215.33 232V70.12a8.48 8.48 0 0 0-4.01-7.22zM127.7 28.23c22.94 1.35 23.23 21.3 22.51 39.1a2.86 2.86 0 0 1-1.59 2.44 2.86 2.86 0 0 1-2.55 0c-20.39-10.4-16.77-10.37-37.12 0a2.86 2.86 0 0 1-2.55 0 2.85 2.85 0 0 1-1.59-2.43c-.73-17.82-.42-37.77 22.51-39.11a2.67 2.67 0 0 1 .38 0zm67.78 198.15h-136a2.84 2.84 0 0 1-2.85-2.85V88.41a2.85 2.85 0 0 1 4.15-2.54c3.58 1.85 7.66 3.62 10.93 1.63l14.8-7.28a2.83 2.83 0 0 1 2.55 0c20.39 10.39 16.77 10.36 37.1 0a2.83 2.83 0 0 1 2.58 0c20.37 10.39 16.76 10.35 37.11 0a2.81 2.81 0 0 1 2.54 0l14.81 7.28c3.25 2 7.36.22 10.95-1.63a2.84 2.84 0 0 1 4.14 2.54v135.12a2.84 2.84 0 0 1-2.81 2.85z"/></symbol><symbol id="bag" viewBox="0 0 255 255"><path d="M211.32 63.1c-5.36-4.35-17.14 4.41-23.08 7a2.87 2.87 0 0 1-2.4 0c-3.56-1.71-12.1-6.43-16.49-7.87a2.85 2.85 0 0 1-2-2.91C172-4 83-4 87.63 59.31a2.86 2.86 0 0 1-2 2.91c-4.4 1.44-13 6.21-16.53 7.89a2.84 2.84 0 0 1-2.35 0C60.9 67.68 49 58.58 43.68 63.1a8.48 8.48 0 0 0-4 7.22v161.91A11.35 11.35 0 0 0 51 243.58h153a11.35 11.35 0 0 0 11.35-11.35V70.32a8.48 8.48 0 0 0-4.03-7.22zM127.7 28.43c22.94 1.35 23.23 21.29 22.51 39.1a2.88 2.88 0 0 1-1.59 2.47 2.86 2.86 0 0 1-2.55 0c-20.39-10.4-16.77-10.37-37.12 0a2.86 2.86 0 0 1-2.55 0 2.85 2.85 0 0 1-1.59-2.43c-.73-17.82-.42-37.77 22.51-39.11zm67.78 198.15h-136a2.84 2.84 0 0 1-2.85-2.85V88.61a2.85 2.85 0 0 1 4.15-2.54c3.57 1.85 7.66 3.62 10.93 1.63l14.8-7.28a2.83 2.83 0 0 1 2.55 0c20.39 10.39 16.77 10.36 37.1 0a2.8 2.8 0 0 1 2.58 0c20.37 10.39 16.76 10.35 37.11 0a2.81 2.81 0 0 1 2.54 0l14.81 7.28c3.25 2 7.36.22 10.95-1.63a2.84 2.84 0 0 1 4.14 2.54v135.12a2.84 2.84 0 0 1-2.81 2.85z"/></symbol><symbol id="card" viewBox="0 0 255 255"><path d="M30 80.69h87.86a7 7 0 1 0 0-14H30a7 7 0 0 0 0 14z"/><path fill-rule="evenodd" d="M232.31 36.43H22.69A22.69 22.69 0 0 0 0 59.12v136.76a22.69 22.69 0 0 0 22.69 22.69h209.62A22.69 22.69 0 0 0 255 195.88V59.12a22.69 22.69 0 0 0-22.69-22.69zM241 195.88a8.69 8.69 0 0 1-8.69 8.69H22.69a8.69 8.69 0 0 1-8.69-8.69V179a8.35 8.35 0 0 1 8.35-8.35h210.3A8.35 8.35 0 0 1 241 179zm0-71.54a8.35 8.35 0 0 1-8.35 8.35H22.35a8.35 8.35 0 0 1-8.35-8.35V59.12a8.69 8.69 0 0 1 8.69-8.69h209.62a8.69 8.69 0 0 1 8.69 8.69z"/></symbol><symbol id="coin" viewBox="0 0 255 255"><path fill-rule="evenodd" d="M254.28 115.24a101.7 101.7 0 0 0-2.7-14.28A104.12 104.12 0 0 0 151 23.5h-47a103.47 103.47 0 0 0-65 22.81 7.59 7.59 0 0 0-1.16 1.18 104.3 104.3 0 0 0-22.25 25.65 6.7 6.7 0 0 0-1.14 1.44l-.08.14a6.52 6.52 0 0 0-.73 1.74 103 103 0 0 0-10 24.69 7.27 7.27 0 0 0-.69 1.73A104.06 104.06 0 0 0 0 128.81a102.44 102.44 0 0 0 22.06 62.33 103.79 103.79 0 0 0 64.26 38.66 106.4 106.4 0 0 0 18.91 1.7H151a103.7 103.7 0 0 0 81.08-38.89 101.58 101.58 0 0 0 9.68-14.29 103.44 103.44 0 0 0 9.85-24.4 101.67 101.67 0 0 0 2.68-14.28 103.47 103.47 0 0 0 .71-12.14 105.53 105.53 0 0 0-.72-12.26zm-25.89-33.13a89.09 89.09 0 0 1 5.81 11.8 5.12 5.12 0 0 1-4.73 7h-16.89a10.85 10.85 0 0 1-10.24-7.38l-.39-1.1-.38-1L201 90l-.39-1-.61-1.59-.36-.85c-.24-.55-.47-1.1-.72-1.64-.1-.23-.21-.45-.31-.68-.2-.44-.39-.88-.6-1.31a4.44 4.44 0 0 1 4-6.37h16.59a11.36 11.36 0 0 1 9.79 5.55zm-53-41a89.16 89.16 0 0 1 28.93 14.21 3.83 3.83 0 0 1-2.26 6.91h-11.3a12.33 12.33 0 0 1-9.22-4.06l-.39-.42-.78-.85c-.88-.95-1.78-1.89-2.69-2.81l-.15-.15c-1.93-1.93-3.94-3.8-6-5.58a4.2 4.2 0 0 1 3.86-7.21zm-85-2.31h.13c1.2-.18 2.41-.33 3.63-.47l1-.11c.58-.06 1.15-.11 1.73-.15.9-.07 1.81-.13 2.72-.18h1.07c1 0 2.06-.06 3.1-.07h.23a89.69 89.69 0 0 1 89.66 89.7 89.36 89.36 0 0 1-15.78 50.82 90 90 0 0 1-32.5 28.76l-.25.13c-1.06.55-2.13 1.07-3.22 1.58l-.79.37c-.93.42-1.87.82-2.81 1.21l-1.33.55c-.8.31-1.6.61-2.41.9-1.14.42-2.3.81-3.47 1.18l-.38.12a89.69 89.69 0 1 1-40.31-174.3zm113 161.45A89.53 89.53 0 0 1 178 213.06a4.78 4.78 0 0 1-4.62-8.13 105.24 105.24 0 0 0 9.62-9.85 7.09 7.09 0 0 1 5.39-2.47h12.49a4.25 4.25 0 0 1 2.56 7.68zm28.32-33.7q-1.75 3.61-3.82 7a9.69 9.69 0 0 1-8.29 4.68h-16.74a4.94 4.94 0 0 1-4.52-7c1.3-2.79 2.48-5.66 3.53-8.58a13.35 13.35 0 0 1 12.56-8.83h9.29a8.87 8.87 0 0 1 8.04 12.77zm8.74-32.91a6.39 6.39 0 0 1-6.38 6h-21.01a5.26 5.26 0 0 1-5.27-5.58v-2.03c0-.56.05-1.13.07-1.7v-5.58c0-.53 0-1.07-.06-1.6s0-.83 0-1.24v-.45a5.85 5.85 0 0 1 5.83-6.19h18a9 9 0 0 1 9 8.64c.05 1.2.08 2.41.08 3.62q0 3.09-.21 6.15z"/><path fill-rule="evenodd" d="M84.88 170.12a11.48 11.48 0 0 1 5.84 10.09v1.3c0 2.59 1.5 4.09 4.08 4h15.26a4.09 4.09 0 0 0 4.09-4.09v-.22a11.77 11.77 0 0 1 6.8-10.59 27.44 27.44 0 0 0 15.67-23.92c-.41-30.11-38-27-40.18-37.33-.68-2.59 1.23-6 6.13-6.13 6-.14 8.85 3.27 9.94 8.58.41 2.59 1.77 3.82 4.36 3.13l14.44-3.54c2.32-.54 3.41-1.9 3.14-4.36-.58-6.5-3.15-16.67-13.26-22.22a11.57 11.57 0 0 1-6-10.16v-1a4.09 4.09 0 0 0-4.09-4.09H95.89c-2.58 0-4.08 1.37-4.08 4.09v.8a11.63 11.63 0 0 1-6.09 10.12c-12.4 6.9-12.7 20.82-12.58 23.68.55 30.11 36.38 24.79 39 36.1.69 2.73-1.09 7.22-8.72 7.36-7.35.13-9.39-3.54-10.07-9.81-.41-2.73-1.78-3.68-4.23-3.14l-14.44 3.41a4 4 0 0 0-3.27 4.36c.66 7.09 3.07 17.84 13.47 23.58z"/></symbol><symbol id="fb" viewBox="0 0 255 255"><path id="Path_38" fill-rule="evenodd" d="M147.33 247.79v-101.7a7.2 7.2 0 0 1 7.2-7.21h26.08a7.2 7.2 0 0 0 7.15-6.31l3.86-30.9a7.21 7.21 0 0 0-7.16-8.1h-29.93a7.2 7.2 0 0 1-7.2-7.21v-21.1c0-12.74 4.19-22.66 22.65-22.66h16.87a7.2 7.2 0 0 0 7.2-7.21V8.44a7.2 7.2 0 0 0-6.79-7.2c-7.1-.41-17.49-1.12-28.6-1.12a54.66 54.66 0 0 0-58.08 59.21 4.87 4.87 0 0 1 0 .54v26.49a7.2 7.2 0 0 1-7.2 7.21H68.15a7.2 7.2 0 0 0-7.2 7.21v30.9a7.2 7.2 0 0 0 7.2 7.2h25.23a7.21 7.21 0 0 1 7.21 7.21v101.69a7.21 7.21 0 0 0 7.2 7.21h32.33a7.21 7.21 0 0 0 7.21-7.2z"/></symbol><symbol id="ig" viewBox="0 0 255 255"><path id="Path_40" fill-rule="evenodd" d="M127.51 22.89a389.47 389.47 0 0 1 50.89 1.4 65.7 65.7 0 0 1 24 4.18 49.68 49.68 0 0 1 24 24 65.7 65.7 0 0 1 4.18 24c0 12.72 1.4 17 1.4 50.89a389.38 389.38 0 0 1-1.4 50.89 65.72 65.72 0 0 1-4.18 24 49.63 49.63 0 0 1-24 24.12 65.5 65.5 0 0 1-24 4.19c-12.72 0-17 1.39-50.89 1.39a389.37 389.37 0 0 1-50.89-1.39 65.52 65.52 0 0 1-24-4.19 49.68 49.68 0 0 1-24.11-24 65.7 65.7 0 0 1-4.18-24c0-12.72-1.4-17-1.4-50.89a389.38 389.38 0 0 1 1.4-50.89 65.72 65.72 0 0 1 4.18-24 51 51 0 0 1 9.9-14.14 23.92 23.92 0 0 1 14.15-9.9 65.42 65.42 0 0 1 24-4.18A389.38 389.38 0 0 1 127.51 23m0-22.76a416.83 416.83 0 0 0-52.3 1.4 87.13 87.13 0 0 0-31.1 5.64 55.51 55.51 0 0 0-22.63 14.2A55.44 55.44 0 0 0 7.34 44.09a64.32 64.32 0 0 0-5.67 31.12 416.83 416.83 0 0 0-1.4 52.3 417 417 0 0 0 1.4 52.31 87.37 87.37 0 0 0 5.67 31.05 55.47 55.47 0 0 0 14.14 22.62 55.5 55.5 0 0 0 22.61 14.2 87.21 87.21 0 0 0 31.1 5.64 417.2 417.2 0 0 0 52.32 1.4 417 417 0 0 0 52.31-1.4 87.13 87.13 0 0 0 31.1-5.64 59.33 59.33 0 0 0 36.77-36.82 87.21 87.21 0 0 0 5.64-31.1c0-14.15 1.4-18.39 1.4-52.32a417 417 0 0 0-1.4-52.31A87.13 87.13 0 0 0 247.69 44a55.36 55.36 0 0 0-14.15-22.63 55.29 55.29 0 0 0-22.67-14.03 87.37 87.37 0 0 0-31.05-5.67 417 417 0 0 0-52.31-1.4m0 62.2a64 64 0 0 0-65 62.93v2.11a65 65 0 1 0 65-65m0 107.39A41.65 41.65 0 0 1 85.1 129v-1.46A41.66 41.66 0 0 1 126 85.09h1.52a41.67 41.67 0 0 1 42.4 40.91v1.52a41.66 41.66 0 0 1-40.92 42.4h-1.52m67.89-125.83a15.55 15.55 0 1 0 15.5 15.61 15.69 15.69 0 0 0-15.55-15.55"/></symbol><symbol id="close" viewBox="0 0 255 255"><rect width="82.33" height="17.77" x="86.34" y="14.38" rx="8.88"/><path d="M28.59 66.5h6.68a8.88 8.88 0 0 1 8.85 8.09L58.2 232.33a8.89 8.89 0 0 0 8.89 8.29h120.82a8.89 8.89 0 0 0 8.89-8.29l14.08-157.74a8.88 8.88 0 0 1 8.85-8.09h6.68a8.89 8.89 0 0 0 8.88-8.89 8.89 8.89 0 0 0-8.88-8.88H28.59a8.89 8.89 0 0 0-8.88 8.88 8.89 8.89 0 0 0 8.88 8.89z"/></symbol><symbol id="logo" viewBox="0 0 255 255"><path d="M232.32 128.94a5 5 0 0 1-1.73-6.73 5.29 5.29 0 0 1 1.44-1.54c9.43-6 15.69-16.85 15.69-31.09 0-18.1-14-39.47-46-39.47h-72.87a4.77 4.77 0 0 0-4.85 4.81v28.4a4.77 4.77 0 0 0 4.82 4.81h62a9.5 9.5 0 0 1 9.25 9.53c0 5.58-4.43 10-9.25 10H56.08a4.93 4.93 0 0 1-4.91-4.91v-9.23a4.93 4.93 0 0 1 4.91-4.91h44A4.93 4.93 0 0 0 105 83.7V55.41a4.77 4.77 0 0 0-4.82-4.82H9.2a4.76 4.76 0 0 0-4.9 4.72v144.28a4.76 4.76 0 0 0 4.81 4.82h37.15a4.77 4.77 0 0 0 4.91-4.72V150.6a4.93 4.93 0 0 1 4.91-4.91h63.05a4.93 4.93 0 0 1 4.9 4.91V200a4.78 4.78 0 0 0 4.72 4.91H205c31.09 0 45.72-20.41 45.72-42 0-15.21-7.41-27.72-18.38-34zm-40.14 37.93h-16.46a4.77 4.77 0 0 1-4.81-4.81V150.6a4.77 4.77 0 0 1 4.72-4.91h16.55a10.58 10.58 0 0 1 11 10.2v.49c0 5.87-4.24 10.49-11 10.49z"/></symbol><symbol id="search" viewBox="0 0 255 255"><path fill-rule="evenodd" d="M189.41 167.14L255 232.81l-22.08 22.13-65.62-65.63 2.07-15.23 20.04-6.94z"/><path fill-rule="evenodd" d="M105 .06a104.88 104.88 0 1 0 104.82 104.88A104.88 104.88 0 0 0 105 .06zm0 188.78a83.9 83.9 0 1 1 83.9-83.9 83.9 83.9 0 0 1-83.9 83.9z"/></symbol><symbol id="shipping" viewBox="0 0 255 255"><path d="M249.35 125.8L237.85 91a8.21 8.21 0 0 0-7.59-5.49h-29.59a6 6 0 0 1-6-6V68.8a3.52 3.52 0 0 0-3.4-3.66H78.86a3.52 3.52 0 0 0-3.4 3.66V164a3.41 3.41 0 0 0 3.4 3.4H90a6.94 6.94 0 0 1 6.73 5.35 22.48 22.48 0 0 0 42.83 2.67 12.66 12.66 0 0 1 11.83-8h24a12.64 12.64 0 0 1 11.84 8 22.48 22.48 0 0 0 42.32-.93 10.49 10.49 0 0 1 9.94-7.11h8.23a3.93 3.93 0 0 0 3.92-3.93V141a49.66 49.66 0 0 0-2.29-15.2zm-130.74 52.3a10.72 10.72 0 1 1 10.72-10.72 10.61 10.61 0 0 1-10.72 10.72zm90 0a10.72 10.72 0 0 1 0-21.44 10.72 10.72 0 0 1 0 21.44zm24.58-56.74h-35a3 3 0 0 1-3.14-3.14V100.7a3 3 0 0 1 3.14-3.14H225a3.39 3.39 0 0 1 3.14 2.09l6.54 19.61a1.69 1.69 0 0 1-1.54 2.1z"/><rect width="26.41" height="12.55" x="34.94" y="84.75" rx="6.28"/><rect width="42.1" height="12.55" x="19.25" y="110.11" rx="6.28"/><rect width="58.05" height="12.55" x="3.3" y="135.21" rx="6.28"/></symbol><symbol id="shopping-cart" viewBox="0 0 255 255"><path d="M211.32 62.9c-5.36-4.35-17.14 4.41-23.08 7a2.87 2.87 0 0 1-2.4 0c-3.56-1.71-12.1-6.43-16.49-7.87a2.85 2.85 0 0 1-2-2.91C172-4.23 83-4.19 87.63 59.11a2.86 2.86 0 0 1-2 2.91c-4.4 1.44-13 6.21-16.53 7.89a2.84 2.84 0 0 1-2.35 0C60.9 67.48 49 58.38 43.68 62.9a8.48 8.48 0 0 0-4 7.22V232A11.35 11.35 0 0 0 51 243.38h153A11.35 11.35 0 0 0 215.33 232V70.12a8.48 8.48 0 0 0-4.01-7.22zM127.7 28.23c22.94 1.35 23.23 21.3 22.51 39.1a2.86 2.86 0 0 1-1.59 2.44 2.86 2.86 0 0 1-2.55 0c-20.39-10.4-16.77-10.37-37.12 0a2.86 2.86 0 0 1-2.55 0 2.85 2.85 0 0 1-1.59-2.43c-.73-17.82-.42-37.77 22.51-39.11a2.67 2.67 0 0 1 .38 0zm67.78 198.15h-136a2.84 2.84 0 0 1-2.85-2.85V88.41a2.85 2.85 0 0 1 4.15-2.54c3.58 1.85 7.66 3.62 10.93 1.63l14.8-7.28a2.83 2.83 0 0 1 2.55 0c20.39 10.39 16.77 10.36 37.1 0a2.83 2.83 0 0 1 2.58 0c20.37 10.39 16.76 10.35 37.11 0a2.81 2.81 0 0 1 2.54 0l14.81 7.28c3.25 2 7.36.22 10.95-1.63a2.84 2.84 0 0 1 4.14 2.54v135.12a2.84 2.84 0 0 1-2.81 2.85z"/></symbol><symbol id="twitter" viewBox="0 0 255 255"><path id="Path_39" fill-rule="evenodd" d="M80.75 230.91A147.44 147.44 0 0 0 229.5 84.82v-8.36a2.8 2.8 0 0 1 1.09-2.23 114.84 114.84 0 0 0 18.49-18.12 2.83 2.83 0 0 0-3.08-4.45c-3 1-5.95 1.89-9 2.65a2.83 2.83 0 0 1-2.67-4.76 55.52 55.52 0 0 0 10.33-13.77 2.84 2.84 0 0 0-3.74-3.88A129.47 129.47 0 0 1 217 40.61a2.86 2.86 0 0 1-2.78-.84 50.6 50.6 0 0 0-37.1-15.69 53.22 53.22 0 0 0-52.46 52.42 27.14 27.14 0 0 0 .42 7.69 2.84 2.84 0 0 1-3 3.39A146.42 146.42 0 0 1 21.15 35.89a2.83 2.83 0 0 0-4.74.66 54.2 54.2 0 0 0-5.05 23 56.32 56.32 0 0 0 16 38 2.84 2.84 0 0 1-2.65 4.76 48 48 0 0 1-14.75-6 51.73 51.73 0 0 0 29.94 47 2.83 2.83 0 0 1-1.34 5.39h-.4a24.76 24.76 0 0 1-4.87-.18 2.81 2.81 0 0 0-2.92 3.93 53.65 53.65 0 0 0 40.27 31 2.83 2.83 0 0 1 1.19 5.13 107 107 0 0 1-59 18.23h-1.21a2.82 2.82 0 0 0-1.38 5.24 133.74 133.74 0 0 0 70.59 18.79"/></symbol><symbol id="search" viewBox="0 0 255 255"><path fill-rule="evenodd" d="M189.41 167.14L255 232.81l-22.08 22.13-65.62-65.63 2.07-15.23 20.04-6.94z"/><path fill-rule="evenodd" d="M105 .06a104.88 104.88 0 1 0 104.82 104.88A104.88 104.88 0 0 0 105 .06zm0 188.78a83.9 83.9 0 1 1 83.9-83.9 83.9 83.9 0 0 1-83.9 83.9z"/></symbol><symbol id="logo" viewBox="0 0 255 255"><path d="M232.32 128.94a5 5 0 0 1-1.73-6.73 5.29 5.29 0 0 1 1.44-1.54c9.43-6 15.69-16.85 15.69-31.09 0-18.1-14-39.47-46-39.47h-72.87a4.77 4.77 0 0 0-4.85 4.81v28.4a4.77 4.77 0 0 0 4.82 4.81h62a9.5 9.5 0 0 1 9.25 9.53c0 5.58-4.43 10-9.25 10H56.08a4.93 4.93 0 0 1-4.91-4.91v-9.23a4.93 4.93 0 0 1 4.91-4.91h44A4.93 4.93 0 0 0 105 83.7V55.41a4.77 4.77 0 0 0-4.82-4.82H9.2a4.76 4.76 0 0 0-4.9 4.72v144.28a4.76 4.76 0 0 0 4.81 4.82h37.15a4.77 4.77 0 0 0 4.91-4.72V150.6a4.93 4.93 0 0 1 4.91-4.91h63.05a4.93 4.93 0 0 1 4.9 4.91V200a4.78 4.78 0 0 0 4.72 4.91H205c31.09 0 45.72-20.41 45.72-42 0-15.21-7.41-27.72-18.38-34zm-40.14 37.93h-16.46a4.77 4.77 0 0 1-4.81-4.81V150.6a4.77 4.77 0 0 1 4.72-4.91h16.55a10.58 10.58 0 0 1 11 10.2v.49c0 5.87-4.24 10.49-11 10.49z"/></symbol><symbol id="twitter" viewBox="0 0 255 255"><path id="Path_39" fill-rule="evenodd" d="M80.75 230.91A147.44 147.44 0 0 0 229.5 84.82v-8.36a2.8 2.8 0 0 1 1.09-2.23 114.84 114.84 0 0 0 18.49-18.12 2.83 2.83 0 0 0-3.08-4.45c-3 1-5.95 1.89-9 2.65a2.83 2.83 0 0 1-2.67-4.76 55.52 55.52 0 0 0 10.33-13.77 2.84 2.84 0 0 0-3.74-3.88A129.47 129.47 0 0 1 217 40.61a2.86 2.86 0 0 1-2.78-.84 50.6 50.6 0 0 0-37.1-15.69 53.22 53.22 0 0 0-52.46 52.42 27.14 27.14 0 0 0 .42 7.69 2.84 2.84 0 0 1-3 3.39A146.42 146.42 0 0 1 21.15 35.89a2.83 2.83 0 0 0-4.74.66 54.2 54.2 0 0 0-5.05 23 56.32 56.32 0 0 0 16 38 2.84 2.84 0 0 1-2.65 4.76 48 48 0 0 1-14.75-6 51.73 51.73 0 0 0 29.94 47 2.83 2.83 0 0 1-1.34 5.39h-.4a24.76 24.76 0 0 1-4.87-.18 2.81 2.81 0 0 0-2.92 3.93 53.65 53.65 0 0 0 40.27 31 2.83 2.83 0 0 1 1.19 5.13 107 107 0 0 1-59 18.23h-1.21a2.82 2.82 0 0 0-1.38 5.24 133.74 133.74 0 0 0 70.59 18.79"/></symbol><symbol id="shopping-cart" viewBox="0 0 255 255"><path d="M211.32 62.9c-5.36-4.35-17.14 4.41-23.08 7a2.87 2.87 0 0 1-2.4 0c-3.56-1.71-12.1-6.43-16.49-7.87a2.85 2.85 0 0 1-2-2.91C172-4.23 83-4.19 87.63 59.11a2.86 2.86 0 0 1-2 2.91c-4.4 1.44-13 6.21-16.53 7.89a2.84 2.84 0 0 1-2.35 0C60.9 67.48 49 58.38 43.68 62.9a8.48 8.48 0 0 0-4 7.22V232A11.35 11.35 0 0 0 51 243.38h153A11.35 11.35 0 0 0 215.33 232V70.12a8.48 8.48 0 0 0-4.01-7.22zM127.7 28.23c22.94 1.35 23.23 21.3 22.51 39.1a2.86 2.86 0 0 1-1.59 2.44 2.86 2.86 0 0 1-2.55 0c-20.39-10.4-16.77-10.37-37.12 0a2.86 2.86 0 0 1-2.55 0 2.85 2.85 0 0 1-1.59-2.43c-.73-17.82-.42-37.77 22.51-39.11a2.67 2.67 0 0 1 .38 0zm67.78 198.15h-136a2.84 2.84 0 0 1-2.85-2.85V88.41a2.85 2.85 0 0 1 4.15-2.54c3.58 1.85 7.66 3.62 10.93 1.63l14.8-7.28a2.83 2.83 0 0 1 2.55 0c20.39 10.39 16.77 10.36 37.1 0a2.83 2.83 0 0 1 2.58 0c20.37 10.39 16.76 10.35 37.11 0a2.81 2.81 0 0 1 2.54 0l14.81 7.28c3.25 2 7.36.22 10.95-1.63a2.84 2.84 0 0 1 4.14 2.54v135.12a2.84 2.84 0 0 1-2.81 2.85z"/></symbol><symbol id="shipping" viewBox="0 0 255 255"><path d="M249.35 125.8L237.85 91a8.21 8.21 0 0 0-7.59-5.49h-29.59a6 6 0 0 1-6-6V68.8a3.52 3.52 0 0 0-3.4-3.66H78.86a3.52 3.52 0 0 0-3.4 3.66V164a3.41 3.41 0 0 0 3.4 3.4H90a6.94 6.94 0 0 1 6.73 5.35 22.48 22.48 0 0 0 42.83 2.67 12.66 12.66 0 0 1 11.83-8h24a12.64 12.64 0 0 1 11.84 8 22.48 22.48 0 0 0 42.32-.93 10.49 10.49 0 0 1 9.94-7.11h8.23a3.93 3.93 0 0 0 3.92-3.93V141a49.66 49.66 0 0 0-2.29-15.2zm-130.74 52.3a10.72 10.72 0 1 1 10.72-10.72 10.61 10.61 0 0 1-10.72 10.72zm90 0a10.72 10.72 0 0 1 0-21.44 10.72 10.72 0 0 1 0 21.44zm24.58-56.74h-35a3 3 0 0 1-3.14-3.14V100.7a3 3 0 0 1 3.14-3.14H225a3.39 3.39 0 0 1 3.14 2.09l6.54 19.61a1.69 1.69 0 0 1-1.54 2.1z"/><rect width="26.41" height="12.55" x="34.94" y="84.75" rx="6.28"/><rect width="42.1" height="12.55" x="19.25" y="110.11" rx="6.28"/><rect width="58.05" height="12.55" x="3.3" y="135.21" rx="6.28"/></symbol><symbol id="fb" viewBox="0 0 255 255"><path id="Path_38" fill-rule="evenodd" d="M147.33 247.79v-101.7a7.2 7.2 0 0 1 7.2-7.21h26.08a7.2 7.2 0 0 0 7.15-6.31l3.86-30.9a7.21 7.21 0 0 0-7.16-8.1h-29.93a7.2 7.2 0 0 1-7.2-7.21v-21.1c0-12.74 4.19-22.66 22.65-22.66h16.87a7.2 7.2 0 0 0 7.2-7.21V8.44a7.2 7.2 0 0 0-6.79-7.2c-7.1-.41-17.49-1.12-28.6-1.12a54.66 54.66 0 0 0-58.08 59.21 4.87 4.87 0 0 1 0 .54v26.49a7.2 7.2 0 0 1-7.2 7.21H68.15a7.2 7.2 0 0 0-7.2 7.21v30.9a7.2 7.2 0 0 0 7.2 7.2h25.23a7.21 7.21 0 0 1 7.21 7.21v101.69a7.21 7.21 0 0 0 7.2 7.21h32.33a7.21 7.21 0 0 0 7.21-7.2z"/></symbol><symbol id="coin" viewBox="0 0 255 255"><path fill-rule="evenodd" d="M254.28 115.24a101.7 101.7 0 0 0-2.7-14.28A104.12 104.12 0 0 0 151 23.5h-47a103.47 103.47 0 0 0-65 22.81 7.59 7.59 0 0 0-1.16 1.18 104.3 104.3 0 0 0-22.25 25.65 6.7 6.7 0 0 0-1.14 1.44l-.08.14a6.52 6.52 0 0 0-.73 1.74 103 103 0 0 0-10 24.69 7.27 7.27 0 0 0-.69 1.73A104.06 104.06 0 0 0 0 128.81a102.44 102.44 0 0 0 22.06 62.33 103.79 103.79 0 0 0 64.26 38.66 106.4 106.4 0 0 0 18.91 1.7H151a103.7 103.7 0 0 0 81.08-38.89 101.58 101.58 0 0 0 9.68-14.29 103.44 103.44 0 0 0 9.85-24.4 101.67 101.67 0 0 0 2.68-14.28 103.47 103.47 0 0 0 .71-12.14 105.53 105.53 0 0 0-.72-12.26zm-25.89-33.13a89.09 89.09 0 0 1 5.81 11.8 5.12 5.12 0 0 1-4.73 7h-16.89a10.85 10.85 0 0 1-10.24-7.38l-.39-1.1-.38-1L201 90l-.39-1-.61-1.59-.36-.85c-.24-.55-.47-1.1-.72-1.64-.1-.23-.21-.45-.31-.68-.2-.44-.39-.88-.6-1.31a4.44 4.44 0 0 1 4-6.37h16.59a11.36 11.36 0 0 1 9.79 5.55zm-53-41a89.16 89.16 0 0 1 28.93 14.21 3.83 3.83 0 0 1-2.26 6.91h-11.3a12.33 12.33 0 0 1-9.22-4.06l-.39-.42-.78-.85c-.88-.95-1.78-1.89-2.69-2.81l-.15-.15c-1.93-1.93-3.94-3.8-6-5.58a4.2 4.2 0 0 1 3.86-7.21zm-85-2.31h.13c1.2-.18 2.41-.33 3.63-.47l1-.11c.58-.06 1.15-.11 1.73-.15.9-.07 1.81-.13 2.72-.18h1.07c1 0 2.06-.06 3.1-.07h.23a89.69 89.69 0 0 1 89.66 89.7 89.36 89.36 0 0 1-15.78 50.82 90 90 0 0 1-32.5 28.76l-.25.13c-1.06.55-2.13 1.07-3.22 1.58l-.79.37c-.93.42-1.87.82-2.81 1.21l-1.33.55c-.8.31-1.6.61-2.41.9-1.14.42-2.3.81-3.47 1.18l-.38.12a89.69 89.69 0 1 1-40.31-174.3zm113 161.45A89.53 89.53 0 0 1 178 213.06a4.78 4.78 0 0 1-4.62-8.13 105.24 105.24 0 0 0 9.62-9.85 7.09 7.09 0 0 1 5.39-2.47h12.49a4.25 4.25 0 0 1 2.56 7.68zm28.32-33.7q-1.75 3.61-3.82 7a9.69 9.69 0 0 1-8.29 4.68h-16.74a4.94 4.94 0 0 1-4.52-7c1.3-2.79 2.48-5.66 3.53-8.58a13.35 13.35 0 0 1 12.56-8.83h9.29a8.87 8.87 0 0 1 8.04 12.77zm8.74-32.91a6.39 6.39 0 0 1-6.38 6h-21.01a5.26 5.26 0 0 1-5.27-5.58v-2.03c0-.56.05-1.13.07-1.7v-5.58c0-.53 0-1.07-.06-1.6s0-.83 0-1.24v-.45a5.85 5.85 0 0 1 5.83-6.19h18a9 9 0 0 1 9 8.64c.05 1.2.08 2.41.08 3.62q0 3.09-.21 6.15z"/><path fill-rule="evenodd" d="M84.88 170.12a11.48 11.48 0 0 1 5.84 10.09v1.3c0 2.59 1.5 4.09 4.08 4h15.26a4.09 4.09 0 0 0 4.09-4.09v-.22a11.77 11.77 0 0 1 6.8-10.59 27.44 27.44 0 0 0 15.67-23.92c-.41-30.11-38-27-40.18-37.33-.68-2.59 1.23-6 6.13-6.13 6-.14 8.85 3.27 9.94 8.58.41 2.59 1.77 3.82 4.36 3.13l14.44-3.54c2.32-.54 3.41-1.9 3.14-4.36-.58-6.5-3.15-16.67-13.26-22.22a11.57 11.57 0 0 1-6-10.16v-1a4.09 4.09 0 0 0-4.09-4.09H95.89c-2.58 0-4.08 1.37-4.08 4.09v.8a11.63 11.63 0 0 1-6.09 10.12c-12.4 6.9-12.7 20.82-12.58 23.68.55 30.11 36.38 24.79 39 36.1.69 2.73-1.09 7.22-8.72 7.36-7.35.13-9.39-3.54-10.07-9.81-.41-2.73-1.78-3.68-4.23-3.14l-14.44 3.41a4 4 0 0 0-3.27 4.36c.66 7.09 3.07 17.84 13.47 23.58z"/></symbol><symbol id="close" viewBox="0 0 255 255"><rect width="82.33" height="17.77" x="86.34" y="14.38" rx="8.88"/><path d="M28.59 66.5h6.68a8.88 8.88 0 0 1 8.85 8.09L58.2 232.33a8.89 8.89 0 0 0 8.89 8.29h120.82a8.89 8.89 0 0 0 8.89-8.29l14.08-157.74a8.88 8.88 0 0 1 8.85-8.09h6.68a8.89 8.89 0 0 0 8.88-8.89 8.89 8.89 0 0 0-8.88-8.88H28.59a8.89 8.89 0 0 0-8.88 8.88 8.89 8.89 0 0 0 8.88 8.89z"/></symbol><symbol id="card" viewBox="0 0 255 255"><path d="M30 80.69h87.86a7 7 0 1 0 0-14H30a7 7 0 0 0 0 14z"/><path fill-rule="evenodd" d="M232.31 36.43H22.69A22.69 22.69 0 0 0 0 59.12v136.76a22.69 22.69 0 0 0 22.69 22.69h209.62A22.69 22.69 0 0 0 255 195.88V59.12a22.69 22.69 0 0 0-22.69-22.69zM241 195.88a8.69 8.69 0 0 1-8.69 8.69H22.69a8.69 8.69 0 0 1-8.69-8.69V179a8.35 8.35 0 0 1 8.35-8.35h210.3A8.35 8.35 0 0 1 241 179zm0-71.54a8.35 8.35 0 0 1-8.35 8.35H22.35a8.35 8.35 0 0 1-8.35-8.35V59.12a8.69 8.69 0 0 1 8.69-8.69h209.62a8.69 8.69 0 0 1 8.69 8.69z"/></symbol><symbol id="ig" viewBox="0 0 255 255"><path id="Path_40" fill-rule="evenodd" d="M127.51 22.89a389.47 389.47 0 0 1 50.89 1.4 65.7 65.7 0 0 1 24 4.18 49.68 49.68 0 0 1 24 24 65.7 65.7 0 0 1 4.18 24c0 12.72 1.4 17 1.4 50.89a389.38 389.38 0 0 1-1.4 50.89 65.72 65.72 0 0 1-4.18 24 49.63 49.63 0 0 1-24 24.12 65.5 65.5 0 0 1-24 4.19c-12.72 0-17 1.39-50.89 1.39a389.37 389.37 0 0 1-50.89-1.39 65.52 65.52 0 0 1-24-4.19 49.68 49.68 0 0 1-24.11-24 65.7 65.7 0 0 1-4.18-24c0-12.72-1.4-17-1.4-50.89a389.38 389.38 0 0 1 1.4-50.89 65.72 65.72 0 0 1 4.18-24 51 51 0 0 1 9.9-14.14 23.92 23.92 0 0 1 14.15-9.9 65.42 65.42 0 0 1 24-4.18A389.38 389.38 0 0 1 127.51 23m0-22.76a416.83 416.83 0 0 0-52.3 1.4 87.13 87.13 0 0 0-31.1 5.64 55.51 55.51 0 0 0-22.63 14.2A55.44 55.44 0 0 0 7.34 44.09a64.32 64.32 0 0 0-5.67 31.12 416.83 416.83 0 0 0-1.4 52.3 417 417 0 0 0 1.4 52.31 87.37 87.37 0 0 0 5.67 31.05 55.47 55.47 0 0 0 14.14 22.62 55.5 55.5 0 0 0 22.61 14.2 87.21 87.21 0 0 0 31.1 5.64 417.2 417.2 0 0 0 52.32 1.4 417 417 0 0 0 52.31-1.4 87.13 87.13 0 0 0 31.1-5.64 59.33 59.33 0 0 0 36.77-36.82 87.21 87.21 0 0 0 5.64-31.1c0-14.15 1.4-18.39 1.4-52.32a417 417 0 0 0-1.4-52.31A87.13 87.13 0 0 0 247.69 44a55.36 55.36 0 0 0-14.15-22.63 55.29 55.29 0 0 0-22.67-14.03 87.37 87.37 0 0 0-31.05-5.67 417 417 0 0 0-52.31-1.4m0 62.2a64 64 0 0 0-65 62.93v2.11a65 65 0 1 0 65-65m0 107.39A41.65 41.65 0 0 1 85.1 129v-1.46A41.66 41.66 0 0 1 126 85.09h1.52a41.67 41.67 0 0 1 42.4 40.91v1.52a41.66 41.66 0 0 1-40.92 42.4h-1.52m67.89-125.83a15.55 15.55 0 1 0 15.5 15.61 15.69 15.69 0 0 0-15.55-15.55"/></symbol><symbol id="search" viewBox="0 0 255 255"><path fill-rule="evenodd" d="M189.41 167.14L255 232.81l-22.08 22.13-65.62-65.63 2.07-15.23 20.04-6.94z"/><path fill-rule="evenodd" d="M105 .06a104.88 104.88 0 1 0 104.82 104.88A104.88 104.88 0 0 0 105 .06zm0 188.78a83.9 83.9 0 1 1 83.9-83.9 83.9 83.9 0 0 1-83.9 83.9z"/></symbol><symbol id="shipping" viewBox="0 0 255 255"><path d="M249.35 125.8L237.85 91a8.21 8.21 0 0 0-7.59-5.49h-29.59a6 6 0 0 1-6-6V68.8a3.52 3.52 0 0 0-3.4-3.66H78.86a3.52 3.52 0 0 0-3.4 3.66V164a3.41 3.41 0 0 0 3.4 3.4H90a6.94 6.94 0 0 1 6.73 5.35 22.48 22.48 0 0 0 42.83 2.67 12.66 12.66 0 0 1 11.83-8h24a12.64 12.64 0 0 1 11.84 8 22.48 22.48 0 0 0 42.32-.93 10.49 10.49 0 0 1 9.94-7.11h8.23a3.93 3.93 0 0 0 3.92-3.93V141a49.66 49.66 0 0 0-2.29-15.2zm-130.74 52.3a10.72 10.72 0 1 1 10.72-10.72 10.61 10.61 0 0 1-10.72 10.72zm90 0a10.72 10.72 0 0 1 0-21.44 10.72 10.72 0 0 1 0 21.44zm24.58-56.74h-35a3 3 0 0 1-3.14-3.14V100.7a3 3 0 0 1 3.14-3.14H225a3.39 3.39 0 0 1 3.14 2.09l6.54 19.61a1.69 1.69 0 0 1-1.54 2.1z"/><rect width="26.41" height="12.55" x="34.94" y="84.75" rx="6.28"/><rect width="42.1" height="12.55" x="19.25" y="110.11" rx="6.28"/><rect width="58.05" height="12.55" x="3.3" y="135.21" rx="6.28"/></symbol><symbol id="shopping-cart" viewBox="0 0 255 255"><path d="M211.32 62.9c-5.36-4.35-17.14 4.41-23.08 7a2.87 2.87 0 0 1-2.4 0c-3.56-1.71-12.1-6.43-16.49-7.87a2.85 2.85 0 0 1-2-2.91C172-4.23 83-4.19 87.63 59.11a2.86 2.86 0 0 1-2 2.91c-4.4 1.44-13 6.21-16.53 7.89a2.84 2.84 0 0 1-2.35 0C60.9 67.48 49 58.38 43.68 62.9a8.48 8.48 0 0 0-4 7.22V232A11.35 11.35 0 0 0 51 243.38h153A11.35 11.35 0 0 0 215.33 232V70.12a8.48 8.48 0 0 0-4.01-7.22zM127.7 28.23c22.94 1.35 23.23 21.3 22.51 39.1a2.86 2.86 0 0 1-1.59 2.44 2.86 2.86 0 0 1-2.55 0c-20.39-10.4-16.77-10.37-37.12 0a2.86 2.86 0 0 1-2.55 0 2.85 2.85 0 0 1-1.59-2.43c-.73-17.82-.42-37.77 22.51-39.11a2.67 2.67 0 0 1 .38 0zm67.78 198.15h-136a2.84 2.84 0 0 1-2.85-2.85V88.41a2.85 2.85 0 0 1 4.15-2.54c3.58 1.85 7.66 3.62 10.93 1.63l14.8-7.28a2.83 2.83 0 0 1 2.55 0c20.39 10.39 16.77 10.36 37.1 0a2.83 2.83 0 0 1 2.58 0c20.37 10.39 16.76 10.35 37.11 0a2.81 2.81 0 0 1 2.54 0l14.81 7.28c3.25 2 7.36.22 10.95-1.63a2.84 2.84 0 0 1 4.14 2.54v135.12a2.84 2.84 0 0 1-2.81 2.85z"/></symbol><symbol id="logo" viewBox="0 0 255 255"><path d="M232.32 128.94a5 5 0 0 1-1.73-6.73 5.29 5.29 0 0 1 1.44-1.54c9.43-6 15.69-16.85 15.69-31.09 0-18.1-14-39.47-46-39.47h-72.87a4.77 4.77 0 0 0-4.85 4.81v28.4a4.77 4.77 0 0 0 4.82 4.81h62a9.5 9.5 0 0 1 9.25 9.53c0 5.58-4.43 10-9.25 10H56.08a4.93 4.93 0 0 1-4.91-4.91v-9.23a4.93 4.93 0 0 1 4.91-4.91h44A4.93 4.93 0 0 0 105 83.7V55.41a4.77 4.77 0 0 0-4.82-4.82H9.2a4.76 4.76 0 0 0-4.9 4.72v144.28a4.76 4.76 0 0 0 4.81 4.82h37.15a4.77 4.77 0 0 0 4.91-4.72V150.6a4.93 4.93 0 0 1 4.91-4.91h63.05a4.93 4.93 0 0 1 4.9 4.91V200a4.78 4.78 0 0 0 4.72 4.91H205c31.09 0 45.72-20.41 45.72-42 0-15.21-7.41-27.72-18.38-34zm-40.14 37.93h-16.46a4.77 4.77 0 0 1-4.81-4.81V150.6a4.77 4.77 0 0 1 4.72-4.91h16.55a10.58 10.58 0 0 1 11 10.2v.49c0 5.87-4.24 10.49-11 10.49z"/></symbol><symbol id="ig" viewBox="0 0 255 255"><path id="Path_40" fill-rule="evenodd" d="M127.51 22.89a389.47 389.47 0 0 1 50.89 1.4 65.7 65.7 0 0 1 24 4.18 49.68 49.68 0 0 1 24 24 65.7 65.7 0 0 1 4.18 24c0 12.72 1.4 17 1.4 50.89a389.38 389.38 0 0 1-1.4 50.89 65.72 65.72 0 0 1-4.18 24 49.63 49.63 0 0 1-24 24.12 65.5 65.5 0 0 1-24 4.19c-12.72 0-17 1.39-50.89 1.39a389.37 389.37 0 0 1-50.89-1.39 65.52 65.52 0 0 1-24-4.19 49.68 49.68 0 0 1-24.11-24 65.7 65.7 0 0 1-4.18-24c0-12.72-1.4-17-1.4-50.89a389.38 389.38 0 0 1 1.4-50.89 65.72 65.72 0 0 1 4.18-24 51 51 0 0 1 9.9-14.14 23.92 23.92 0 0 1 14.15-9.9 65.42 65.42 0 0 1 24-4.18A389.38 389.38 0 0 1 127.51 23m0-22.76a416.83 416.83 0 0 0-52.3 1.4 87.13 87.13 0 0 0-31.1 5.64 55.51 55.51 0 0 0-22.63 14.2A55.44 55.44 0 0 0 7.34 44.09a64.32 64.32 0 0 0-5.67 31.12 416.83 416.83 0 0 0-1.4 52.3 417 417 0 0 0 1.4 52.31 87.37 87.37 0 0 0 5.67 31.05 55.47 55.47 0 0 0 14.14 22.62 55.5 55.5 0 0 0 22.61 14.2 87.21 87.21 0 0 0 31.1 5.64 417.2 417.2 0 0 0 52.32 1.4 417 417 0 0 0 52.31-1.4 87.13 87.13 0 0 0 31.1-5.64 59.33 59.33 0 0 0 36.77-36.82 87.21 87.21 0 0 0 5.64-31.1c0-14.15 1.4-18.39 1.4-52.32a417 417 0 0 0-1.4-52.31A87.13 87.13 0 0 0 247.69 44a55.36 55.36 0 0 0-14.15-22.63 55.29 55.29 0 0 0-22.67-14.03 87.37 87.37 0 0 0-31.05-5.67 417 417 0 0 0-52.31-1.4m0 62.2a64 64 0 0 0-65 62.93v2.11a65 65 0 1 0 65-65m0 107.39A41.65 41.65 0 0 1 85.1 129v-1.46A41.66 41.66 0 0 1 126 85.09h1.52a41.67 41.67 0 0 1 42.4 40.91v1.52a41.66 41.66 0 0 1-40.92 42.4h-1.52m67.89-125.83a15.55 15.55 0 1 0 15.5 15.61 15.69 15.69 0 0 0-15.55-15.55"/></symbol><symbol id="twitter" viewBox="0 0 255 255"><path id="Path_39" fill-rule="evenodd" d="M80.75 230.91A147.44 147.44 0 0 0 229.5 84.82v-8.36a2.8 2.8 0 0 1 1.09-2.23 114.84 114.84 0 0 0 18.49-18.12 2.83 2.83 0 0 0-3.08-4.45c-3 1-5.95 1.89-9 2.65a2.83 2.83 0 0 1-2.67-4.76 55.52 55.52 0 0 0 10.33-13.77 2.84 2.84 0 0 0-3.74-3.88A129.47 129.47 0 0 1 217 40.61a2.86 2.86 0 0 1-2.78-.84 50.6 50.6 0 0 0-37.1-15.69 53.22 53.22 0 0 0-52.46 52.42 27.14 27.14 0 0 0 .42 7.69 2.84 2.84 0 0 1-3 3.39A146.42 146.42 0 0 1 21.15 35.89a2.83 2.83 0 0 0-4.74.66 54.2 54.2 0 0 0-5.05 23 56.32 56.32 0 0 0 16 38 2.84 2.84 0 0 1-2.65 4.76 48 48 0 0 1-14.75-6 51.73 51.73 0 0 0 29.94 47 2.83 2.83 0 0 1-1.34 5.39h-.4a24.76 24.76 0 0 1-4.87-.18 2.81 2.81 0 0 0-2.92 3.93 53.65 53.65 0 0 0 40.27 31 2.83 2.83 0 0 1 1.19 5.13 107 107 0 0 1-59 18.23h-1.21a2.82 2.82 0 0 0-1.38 5.24 133.74 133.74 0 0 0 70.59 18.79"/></symbol><symbol id="coin" viewBox="0 0 255 255"><path fill-rule="evenodd" d="M254.28 115.24a101.7 101.7 0 0 0-2.7-14.28A104.12 104.12 0 0 0 151 23.5h-47a103.47 103.47 0 0 0-65 22.81 7.59 7.59 0 0 0-1.16 1.18 104.3 104.3 0 0 0-22.25 25.65 6.7 6.7 0 0 0-1.14 1.44l-.08.14a6.52 6.52 0 0 0-.73 1.74 103 103 0 0 0-10 24.69 7.27 7.27 0 0 0-.69 1.73A104.06 104.06 0 0 0 0 128.81a102.44 102.44 0 0 0 22.06 62.33 103.79 103.79 0 0 0 64.26 38.66 106.4 106.4 0 0 0 18.91 1.7H151a103.7 103.7 0 0 0 81.08-38.89 101.58 101.58 0 0 0 9.68-14.29 103.44 103.44 0 0 0 9.85-24.4 101.67 101.67 0 0 0 2.68-14.28 103.47 103.47 0 0 0 .71-12.14 105.53 105.53 0 0 0-.72-12.26zm-25.89-33.13a89.09 89.09 0 0 1 5.81 11.8 5.12 5.12 0 0 1-4.73 7h-16.89a10.85 10.85 0 0 1-10.24-7.38l-.39-1.1-.38-1L201 90l-.39-1-.61-1.59-.36-.85c-.24-.55-.47-1.1-.72-1.64-.1-.23-.21-.45-.31-.68-.2-.44-.39-.88-.6-1.31a4.44 4.44 0 0 1 4-6.37h16.59a11.36 11.36 0 0 1 9.79 5.55zm-53-41a89.16 89.16 0 0 1 28.93 14.21 3.83 3.83 0 0 1-2.26 6.91h-11.3a12.33 12.33 0 0 1-9.22-4.06l-.39-.42-.78-.85c-.88-.95-1.78-1.89-2.69-2.81l-.15-.15c-1.93-1.93-3.94-3.8-6-5.58a4.2 4.2 0 0 1 3.86-7.21zm-85-2.31h.13c1.2-.18 2.41-.33 3.63-.47l1-.11c.58-.06 1.15-.11 1.73-.15.9-.07 1.81-.13 2.72-.18h1.07c1 0 2.06-.06 3.1-.07h.23a89.69 89.69 0 0 1 89.66 89.7 89.36 89.36 0 0 1-15.78 50.82 90 90 0 0 1-32.5 28.76l-.25.13c-1.06.55-2.13 1.07-3.22 1.58l-.79.37c-.93.42-1.87.82-2.81 1.21l-1.33.55c-.8.31-1.6.61-2.41.9-1.14.42-2.3.81-3.47 1.18l-.38.12a89.69 89.69 0 1 1-40.31-174.3zm113 161.45A89.53 89.53 0 0 1 178 213.06a4.78 4.78 0 0 1-4.62-8.13 105.24 105.24 0 0 0 9.62-9.85 7.09 7.09 0 0 1 5.39-2.47h12.49a4.25 4.25 0 0 1 2.56 7.68zm28.32-33.7q-1.75 3.61-3.82 7a9.69 9.69 0 0 1-8.29 4.68h-16.74a4.94 4.94 0 0 1-4.52-7c1.3-2.79 2.48-5.66 3.53-8.58a13.35 13.35 0 0 1 12.56-8.83h9.29a8.87 8.87 0 0 1 8.04 12.77zm8.74-32.91a6.39 6.39 0 0 1-6.38 6h-21.01a5.26 5.26 0 0 1-5.27-5.58v-2.03c0-.56.05-1.13.07-1.7v-5.58c0-.53 0-1.07-.06-1.6s0-.83 0-1.24v-.45a5.85 5.85 0 0 1 5.83-6.19h18a9 9 0 0 1 9 8.64c.05 1.2.08 2.41.08 3.62q0 3.09-.21 6.15z"/><path fill-rule="evenodd" d="M84.88 170.12a11.48 11.48 0 0 1 5.84 10.09v1.3c0 2.59 1.5 4.09 4.08 4h15.26a4.09 4.09 0 0 0 4.09-4.09v-.22a11.77 11.77 0 0 1 6.8-10.59 27.44 27.44 0 0 0 15.67-23.92c-.41-30.11-38-27-40.18-37.33-.68-2.59 1.23-6 6.13-6.13 6-.14 8.85 3.27 9.94 8.58.41 2.59 1.77 3.82 4.36 3.13l14.44-3.54c2.32-.54 3.41-1.9 3.14-4.36-.58-6.5-3.15-16.67-13.26-22.22a11.57 11.57 0 0 1-6-10.16v-1a4.09 4.09 0 0 0-4.09-4.09H95.89c-2.58 0-4.08 1.37-4.08 4.09v.8a11.63 11.63 0 0 1-6.09 10.12c-12.4 6.9-12.7 20.82-12.58 23.68.55 30.11 36.38 24.79 39 36.1.69 2.73-1.09 7.22-8.72 7.36-7.35.13-9.39-3.54-10.07-9.81-.41-2.73-1.78-3.68-4.23-3.14l-14.44 3.41a4 4 0 0 0-3.27 4.36c.66 7.09 3.07 17.84 13.47 23.58z"/></symbol><symbol id="close" viewBox="0 0 255 255"><rect width="82.33" height="17.77" x="86.34" y="14.38" rx="8.88"/><path d="M28.59 66.5h6.68a8.88 8.88 0 0 1 8.85 8.09L58.2 232.33a8.89 8.89 0 0 0 8.89 8.29h120.82a8.89 8.89 0 0 0 8.89-8.29l14.08-157.74a8.88 8.88 0 0 1 8.85-8.09h6.68a8.89 8.89 0 0 0 8.88-8.89 8.89 8.89 0 0 0-8.88-8.88H28.59a8.89 8.89 0 0 0-8.88 8.88 8.89 8.89 0 0 0 8.88 8.89z"/></symbol><symbol id="card" viewBox="0 0 255 255"><path d="M30 80.69h87.86a7 7 0 1 0 0-14H30a7 7 0 0 0 0 14z"/><path fill-rule="evenodd" d="M232.31 36.43H22.69A22.69 22.69 0 0 0 0 59.12v136.76a22.69 22.69 0 0 0 22.69 22.69h209.62A22.69 22.69 0 0 0 255 195.88V59.12a22.69 22.69 0 0 0-22.69-22.69zM241 195.88a8.69 8.69 0 0 1-8.69 8.69H22.69a8.69 8.69 0 0 1-8.69-8.69V179a8.35 8.35 0 0 1 8.35-8.35h210.3A8.35 8.35 0 0 1 241 179zm0-71.54a8.35 8.35 0 0 1-8.35 8.35H22.35a8.35 8.35 0 0 1-8.35-8.35V59.12a8.69 8.69 0 0 1 8.69-8.69h209.62a8.69 8.69 0 0 1 8.69 8.69z"/></symbol><symbol id="fb" viewBox="0 0 255 255"><path id="Path_38" fill-rule="evenodd" d="M147.33 247.79v-101.7a7.2 7.2 0 0 1 7.2-7.21h26.08a7.2 7.2 0 0 0 7.15-6.31l3.86-30.9a7.21 7.21 0 0 0-7.16-8.1h-29.93a7.2 7.2 0 0 1-7.2-7.21v-21.1c0-12.74 4.19-22.66 22.65-22.66h16.87a7.2 7.2 0 0 0 7.2-7.21V8.44a7.2 7.2 0 0 0-6.79-7.2c-7.1-.41-17.49-1.12-28.6-1.12a54.66 54.66 0 0 0-58.08 59.21 4.87 4.87 0 0 1 0 .54v26.49a7.2 7.2 0 0 1-7.2 7.21H68.15a7.2 7.2 0 0 0-7.2 7.21v30.9a7.2 7.2 0 0 0 7.2 7.2h25.23a7.21 7.21 0 0 1 7.21 7.21v101.69a7.21 7.21 0 0 0 7.2 7.21h32.33a7.21 7.21 0 0 0 7.21-7.2z"/></symbol></svg>