<svg xmlns="http://www.w3.org/2000/svg"><symbol id="fb" viewBox="0 0 255 255"><path fill-rule="evenodd" d="M147.3 247.8V146.1a7.2 7.2 0 0 1 7.2-7.2h26.1a7.3 7.3 0 0 0 7.2-6.3l3.8-30.9a7.2 7.2 0 0 0-7.1-8.1h-30a7.3 7.3 0 0 1-7.2-7.2V65.3c0-12.8 4.2-22.7 22.7-22.7h16.8a7.3 7.3 0 0 0 7.3-7.2v-27a7.3 7.3 0 0 0-6.8-7.2C180.2.8 169.8.1 158.7.1A54.6 54.6 0 0 0 100.5 51a45.9 45.9 0 0 0 .1 8.3v27.1a7.2 7.2 0 0 1-7.2 7.2H68.2a7.3 7.3 0 0 0-7.3 7.2v30.9a7.3 7.3 0 0 0 7.3 7.2h25.2a7.2 7.2 0 0 1 7.2 7.2v101.7a7.2 7.2 0 0 0 7.2 7.2h32.3a7.2 7.2 0 0 0 7.2-7.2z"/></symbol><symbol id="search" viewBox="0 0 255 255"><path d="M242.3 219.9L210 187.7a15.7 15.7 0 0 1-2.3-19.3 109 109 0 0 0 15.4-56.8A110.8 110.8 0 0 0 112.9 0h-1.3A110.9 110.9 0 0 0 0 110.2v1.4a110.9 110.9 0 0 0 110.2 111.5h1.4a109 109 0 0 0 56.8-15.4 15.7 15.7 0 0 1 19.3 2.3l32.2 32.3a15.9 15.9 0 0 0 22.3 0h.1a15.9 15.9 0 0 0 0-22.4zM31.9 111.6A78.8 78.8 0 0 1 110 31.9h1.6a78.8 78.8 0 0 1 79.6 78.1 4.3 4.3 0 0 1 0 1.6 78.8 78.8 0 0 1-78.1 79.6 3.8 3.8 0 0 1-1.5 0 78.8 78.8 0 0 1-79.7-78.1z"/></symbol><symbol id="hamburger-icon" viewBox="0 0 255 255"><path d="M0 223.1a15.9 15.9 0 0 1 15.9-15.9h127.5a16 16 0 0 1 16 15.9 16 16 0 0 1-16 16H15.9a16 16 0 0 1-15.9-16zm0-95.6a15.9 15.9 0 0 1 15.9-15.9h223.2a15.9 15.9 0 0 1 15.9 15.9 15.9 15.9 0 0 1-15.9 15.9H15.9A15.9 15.9 0 0 1 0 127.5zm0-95.6a16 16 0 0 1 15.9-16h223.2a16 16 0 0 1 15.9 16 15.9 15.9 0 0 1-15.9 15.9H15.9A15.9 15.9 0 0 1 0 31.9z"/></symbol><symbol id="card" viewBox="0 0 255 255"><path d="M232.3 36.4h-48.4a7 7 0 0 0-7 7 7 7 0 0 0 7 7h48.4a8.7 8.7 0 0 1 8.7 8.7v65.2a8.3 8.3 0 0 1-8.3 8.4H22.3a8.3 8.3 0 0 1-8.3-8.4V59.1a8.7 8.7 0 0 1 8.7-8.7h103.8a7 7 0 0 0 7-7 7.1 7.1 0 0 0-7-7H22.7A22.7 22.7 0 0 0 0 59.1v136.8a22.7 22.7 0 0 0 22.7 22.7h209.6a22.7 22.7 0 0 0 22.7-22.7V59.1a22.7 22.7 0 0 0-22.7-22.7zm8.7 159.5a8.7 8.7 0 0 1-8.7 8.7H22.7a8.7 8.7 0 0 1-8.7-8.7V179a8.3 8.3 0 0 1 8.3-8.3h210.4a8.3 8.3 0 0 1 8.3 8.3zM158.4 36.4h-4.7a7 7 0 0 0-6.9 7 6.9 6.9 0 0 0 6.9 7h4.7a7 7 0 0 0 7-7 7 7 0 0 0-7-7z"/><path d="M30 80.7h87.9a7 7 0 0 0 0-14H30a7 7 0 0 0 0 14z"/></symbol><symbol id="ig" viewBox="0 0 255 255"><path fill-rule="evenodd" d="M127.5 22.9a375.9 375.9 0 0 1 50.9 1.4 65.3 65.3 0 0 1 24 4.2 49.8 49.8 0 0 1 24.1 24 65.5 65.5 0 0 1 4.1 24c0 12.8 1.4 17 1.4 50.9a375.9 375.9 0 0 1-1.4 50.9 65.2 65.2 0 0 1-4.1 24 49.5 49.5 0 0 1-24 24.2 65.6 65.6 0 0 1-24 4.2c-12.8 0-17 1.4-50.9 1.4a411.6 411.6 0 0 1-50.9-1.4 65.3 65.3 0 0 1-24-4.2 49.5 49.5 0 0 1-24.2-24 65.5 65.5 0 0 1-4.1-24c0-12.8-1.4-17-1.4-50.9a375.9 375.9 0 0 1 1.4-50.9 65.2 65.2 0 0 1 4.1-24 52.5 52.5 0 0 1 9.9-14.2 24.3 24.3 0 0 1 14.2-9.9 65.6 65.6 0 0 1 24-4.2 411.6 411.6 0 0 1 50.9-1.4m0-22.7a397.3 397.3 0 0 0-52.3 1.4 86.9 86.9 0 0 0-31.1 5.6 55.3 55.3 0 0 0-22.6 14.2A55.3 55.3 0 0 0 7.3 44.1a63.9 63.9 0 0 0-5.6 31.1 397.3 397.3 0 0 0-1.4 52.3 396.8 396.8 0 0 0 1.4 52.3 89.5 89.5 0 0 0 5.6 31.1 56 56 0 0 0 14.2 22.6 54.7 54.7 0 0 0 22.6 14.2 86.9 86.9 0 0 0 31.1 5.6 397.3 397.3 0 0 0 52.3 1.4 396.8 396.8 0 0 0 52.3-1.4 86.9 86.9 0 0 0 31.1-5.6 59.5 59.5 0 0 0 36.8-36.8 87.3 87.3 0 0 0 5.6-31.1c0-14.2 1.4-18.4 1.4-52.3a398.3 398.3 0 0 0-1.4-52.4 87.3 87.3 0 0 0-5.6-31.1 56 56 0 0 0-14.2-22.6 55.1 55.1 0 0 0-22.6-14.1 89.5 89.5 0 0 0-31.1-5.6A396.8 396.8 0 0 0 127.5.3m0 62.2a64 64 0 0 0-65 62.9v2.1a65 65 0 1 0 65-65m0 107.4A41.7 41.7 0 0 1 85.1 129v-1.5A41.7 41.7 0 0 1 126 85.1h1.5a41.7 41.7 0 0 1 42.4 40.9v1.5a41.7 41.7 0 0 1-40.9 42.4h-1.5m67.9-125.8a15.6 15.6 0 1 0 15.5 15.6 15.8 15.8 0 0 0-15.6-15.6"/></symbol><symbol id="coin" viewBox="0 0 255 255"><path d="M254.3 115.2a111.2 111.2 0 0 0-2.7-14.2 100.7 100.7 0 0 0-9.9-24.4 94.5 94.5 0 0 0-9.7-14.3 103.8 103.8 0 0 0-81-38.8h-47a103.4 103.4 0 0 0-65 22.8A7.2 7.2 0 0 0 43.5 59a7.6 7.6 0 0 0 4.6-1.6 89.6 89.6 0 0 1 117.5 4.9 87.8 87.8 0 0 1 12.2 14.3 86.4 86.4 0 0 1 11.9 24.4 94.5 94.5 0 0 1 3.2 14.2 99 99 0 0 1 .8 12.3 95.8 95.8 0 0 1-.8 12.1 84.7 84.7 0 0 1-3.2 14.3 88.9 88.9 0 0 1-11.8 24.4 87.8 87.8 0 0 1-12.2 14.3 89.3 89.3 0 0 1-62.2 24.6c-48.5-.3-88.5-39.7-89.2-88.3a94.6 94.6 0 0 1 2.5-22.7 7.1 7.1 0 0 0-6.9-8.8 7.3 7.3 0 0 0-7 5.5A105.5 105.5 0 0 0 0 128.8c.7 57.1 48.1 102.7 105.2 102.7H151a103.9 103.9 0 0 0 81.1-38.9 108.8 108.8 0 0 0 9.7-14.3 108.3 108.3 0 0 0 9.8-24.4 109.5 109.5 0 0 0 2.7-14.3 96 96 0 0 0 .7-12.1 100.3 100.3 0 0 0-.7-12.3zm-25.9-33.1a99.3 99.3 0 0 1 5.8 11.8 5.1 5.1 0 0 1-4.7 7.1h-16.9a10.9 10.9 0 0 1-10.3-7.4 99.5 99.5 0 0 0-4.3-10.7 4.4 4.4 0 0 1 4-6.3h16.6a11.3 11.3 0 0 1 9.8 5.5zm-37.6-19.8a12.6 12.6 0 0 1-9.3-4.1 92.6 92.6 0 0 0-10-9.8 4.2 4.2 0 0 1 3.9-7.3 88.8 88.8 0 0 1 28.9 14.3 3.8 3.8 0 0 1-2.2 6.9zm12.6 138a91.9 91.9 0 0 1-25.4 12.8 4.8 4.8 0 0 1-4.6-8.2 98.8 98.8 0 0 0 9.6-9.8 7.2 7.2 0 0 1 5.4-2.5h12.5a4.3 4.3 0 0 1 2.5 7.7zm28.4-33.7c-1.2 2.4-2.5 4.7-3.9 7a9.6 9.6 0 0 1-8.2 4.7h-16.8a5 5 0 0 1-4.6-7c1.3-2.8 2.5-5.6 3.6-8.5a13.4 13.4 0 0 1 12.5-8.9h9.3a8.9 8.9 0 0 1 8.1 12.7zm8.7-32.9a6.4 6.4 0 0 1-6.4 5.9h-21a5.2 5.2 0 0 1-5.3-5.5c.1-2.2.2-4.4.2-6.6s-.1-4.1-.2-6.1a5.9 5.9 0 0 1 5.9-6.2h17.9a9 9 0 0 1 9 8.7c.1 1.2.1 2.4.1 3.6s-.1 4.1-.2 6.2zM20.9 71.2h-.5a6.8 6.8 0 0 0-5.9 3.4h-.1a6.9 6.9 0 0 0 5.9 10.5h.6a6.8 6.8 0 0 0 5.9-3.4v-.2a6.9 6.9 0 0 0-5.9-10.3z"/><path d="M121 170.6a11.5 11.5 0 0 0-6.8 10.5v.3a4.2 4.2 0 0 1-4.1 4.1H94.8c-2.6.1-4.1-1.4-4.1-4v-1.3a11.5 11.5 0 0 0-5.8-10.1c-10.4-5.7-12.8-16.5-13.5-23.6a4 4 0 0 1 3.2-4.4l14.5-3.4c2.4-.5 3.8.4 4.2 3.2.7 6.2 2.7 9.9 10.1 9.8s9.4-4.7 8.7-7.4c-2.6-11.3-38.4-6-39-36.1-.1-2.8.2-16.8 12.6-23.7a11.5 11.5 0 0 0 6.1-10.1v-.8c0-2.7 1.5-4.1 4.1-4.1h15.3a4.1 4.1 0 0 1 4 4.1v1a11.8 11.8 0 0 0 6 10.2c10.1 5.5 12.7 15.7 13.3 22.2.2 2.5-.9 3.8-3.2 4.3l-14.4 3.6c-2.6.7-4-.6-4.4-3.1-1.1-5.3-3.9-8.8-9.9-8.6s-6.8 3.5-6.2 6.1c2.2 10.4 39.8 7.2 40.2 37.3a27.5 27.5 0 0 1-15.6 24z"/></symbol><symbol id="socks" viewBox="0 0 255 255"><path d="M133.8 187.2a41.2 41.2 0 0 0-5.6-6.9l-23.1-23.1a13 13 0 0 1-3.8-9.3V65.8a17.1 17.1 0 0 0-17.1-17H30.8a17 17 0 0 0-17 17v38.5a9.2 9.2 0 0 0 8.3 9.3 8.9 8.9 0 0 0 9.5-8.9v-9.8a5.2 5.2 0 0 1 5.2-5.2h10.9a6.5 6.5 0 0 0 6.6-5.6A6.3 6.3 0 0 0 48 77H36.8a5.2 5.2 0 0 1-5.2-5.2 5.2 5.2 0 0 1 5.2-5.2h41.5a5.2 5.2 0 0 1 5.2 5.2 5.2 5.2 0 0 1-5.2 5.2h-11a6.6 6.6 0 0 0-6.6 5.6 6.4 6.4 0 0 0 6.3 7.1h11.3a5.2 5.2 0 0 1 5.2 5.2v53a30.9 30.9 0 0 0 9 21.9l11.4 11.3a5.8 5.8 0 0 1-1.6 9.3 79.5 79.5 0 0 0-29.6 24.4 5.3 5.3 0 0 1-8 .6l-5.4-5.4a5.4 5.4 0 0 1-1.3-5.4 52.6 52.6 0 0 0 2.7-16.7 54.1 54.1 0 0 0-25.2-45.6 8 8 0 0 1-3.9-6.9c0-4.9-3.8-9.3-8.7-9.4a8.8 8.8 0 0 0-9.1 8.9v41.9a30.5 30.5 0 0 0 9 21.8L40 215.8 65.1 241l1.3 1.2 1.6 1.5c.1.1.1.2.2.2l1.5 1.3a43.8 43.8 0 0 0 55.2 0l1.5-1.3.2-.2 1.6-1.5 2.6-2.8a43.9 43.9 0 0 0 3-52.2zm-90.9.7a2.3 2.3 0 0 1-4 1.6l-3.5-3.4a13 13 0 0 1-3.8-9.3v-8.9a2.3 2.3 0 0 1 4.2-1.5 36.2 36.2 0 0 1 7.1 21.5zm80.1 26.4c0 .4-.1.8-.1 1.3s-.1.5-.2.7l-.3 1.4c0 .2-.1.4-.1.6a14.6 14.6 0 0 1-.7 1.9.8.8 0 0 1-.1.4l-.6 1.5a4.3 4.3 0 0 0-.4.7l-.6 1.1a1.6 1.6 0 0 1-.4.7 4.1 4.1 0 0 1-.7 1.1 4.3 4.3 0 0 1-.4.7l-.9 1.1-.4.6-1.5 1.5a9.8 9.8 0 0 1-1.8 1.7l-.8.6-1.1.8-1.1.7-.9.6-1.3.6-.8.4-1.4.5-.8.3-1.4.5-.9.2-1.4.3h-1l-1.3.2h-4.1c-10.3-.8-9.5-9.5-5.9-14.8a64.6 64.6 0 0 1 19.5-15.2 18.5 18.5 0 0 0 2-1l3.5-1.5c7.6-1.9 8.5 9 8.5 9a2.2 2.2 0 0 1-.1.8z"/><path d="M234.1 138.4h-.1a41.2 41.2 0 0 0-5.6-6.9l-23.1-23.1a13 13 0 0 1-3.8-9.2V17a17 17 0 0 0-17.1-17H131a17 17 0 0 0-17 17v38.5c0 4.9 3.7 9.2 8.6 9.3a8.9 8.9 0 0 0 9.2-8.9v-9.7a5.2 5.2 0 0 1 5.2-5.3h11a6.4 6.4 0 0 0 6.5-5.7 6.3 6.3 0 0 0-6.3-7H137a5.2 5.2 0 0 1-5.2-5.2 5.2 5.2 0 0 1 5.2-5.2h41.5a5.2 5.2 0 0 1 5.2 5.2 5.2 5.2 0 0 1-5.2 5.2h-11a6.7 6.7 0 0 0-6.6 5.8 6.3 6.3 0 0 0 6.4 6.9h11.2a5.2 5.2 0 0 1 5.2 5.3v53a30.4 30.4 0 0 0 9.1 21.8l11.3 11.4a5.7 5.7 0 0 1-1.5 9.2 80.1 80.1 0 0 0-29.7 24.5 5.4 5.4 0 0 1-8 .5l-5.4-5.4a5.4 5.4 0 0 1-1.3-5.4 52.2 52.2 0 0 0 2.7-16.7 54.2 54.2 0 0 0-25.3-45.6 8.3 8.3 0 0 1-3.8-7 9.2 9.2 0 0 0-8.6-9.3 8.9 8.9 0 0 0-9.2 8.9V128a30.9 30.9 0 0 0 9 21.9l17.2 17.1 25.1 25.2 1.3 1.2 1.6 1.6.3.2 1.4 1.2h.1a43.8 43.8 0 0 0 55.1-.1l1.5-1.2.2-.2 1.6-1.6a22.7 22.7 0 0 0 2.6-2.8 44 44 0 0 0 3.1-52.1zm-91 .8a2.4 2.4 0 0 1-4 1.6l-3.5-3.5a13.4 13.4 0 0 1-3.8-9.3v-8.9a2.3 2.3 0 0 1 4.2-1.4 35.9 35.9 0 0 1 7.1 21.4zm80.2 26.3c-.1.4-.1.9-.2 1.3s-.1.5-.2.7a3.5 3.5 0 0 1-.3 1.4c0 .2-.1.4-.1.6l-.6 1.9c-.1.2-.1.3-.2.4l-.6 1.5-.3.7a7.5 7.5 0 0 1-.7 1.2l-.4.7-.7 1.1-.4.6-.9 1.1-.4.6-1.4 1.5a15.4 15.4 0 0 1-1.9 1.7l-.7.6-1.2.9-1 .6-1 .6-1.2.6-.9.4-1.4.6-.8.3-1.4.4-.9.2-1.4.3-1 .2h-5.4c-10.3-.9-9.5-9.6-5.9-14.8a63.4 63.4 0 0 1 19.5-15.4 7.5 7.5 0 0 0 2-1l3.5-1.5c7.6-1.8 8.5 9 8.5 9z"/></symbol><symbol id="twitter" viewBox="0 0 255 255"><path fill-rule="evenodd" d="M80.7 230.9c81.5.7 148.1-64.7 148.8-146.1v-8.3a3 3 0 0 1 1.1-2.3 117.3 117.3 0 0 0 18.5-18.1 2.8 2.8 0 0 0-3.2-4.4c-2.9 1-5.9 1.8-8.9 2.6a2.8 2.8 0 0 1-2.7-4.8 55.3 55.3 0 0 0 10.3-13.7 2.8 2.8 0 0 0-3.7-3.9 129.1 129.1 0 0 1-23.9 8.7 2.9 2.9 0 0 1-2.8-.8 50.2 50.2 0 0 0-37.1-15.7 53.1 53.1 0 0 0-52.4 52.4 24.8 24.8 0 0 0 .4 7.7 2.9 2.9 0 0 1-3 3.4 146.8 146.8 0 0 1-101-51.7 2.8 2.8 0 0 0-4.7.6 53.9 53.9 0 0 0-5 23 56.2 56.2 0 0 0 15.9 38 2.8 2.8 0 0 1-2.6 4.8 47.5 47.5 0 0 1-14.8-6 51.9 51.9 0 0 0 30 47.1c2.8 1.2 1.7 5.5-1.4 5.3h-.4a19.3 19.3 0 0 1-4.8-.2 2.9 2.9 0 0 0-3 4 53.9 53.9 0 0 0 40.3 31 2.8 2.8 0 0 1 1.2 5.1 107 107 0 0 1-59.1 18.2h-1.2a2.8 2.8 0 0 0-1.3 5.2 133.2 133.2 0 0 0 70.5 18.8"/></symbol><symbol id="close" viewBox="0 0 255 255"><path d="M124 146.5l-90.2 90.2a15.9 15.9 0 0 1-22.5 0 15.9 15.9 0 0 1 0-22.6l90.1-90.1-90.1-90.2a15.8 15.8 0 0 1 0-22.5 15.8 15.8 0 0 1 22.5 0l90.2 90.1 90.1-90.1a15.9 15.9 0 0 1 22.6 0 15.9 15.9 0 0 1 0 22.5L146.5 124l90.2 90.1a16.1 16.1 0 0 1 0 22.6h-.1a15.9 15.9 0 0 1-22.5 0z"/></symbol><symbol id="shopping-cart" viewBox="0 0 255 255"><path d="M215.8 168.9h-11.7a6 6 0 0 0-6 6 6 6 0 0 0 6 6.1h11.7a6.1 6.1 0 1 0 0-12.1zM249 42.2H52.6A11.7 11.7 0 0 1 41.2 33l-3.4-16.2a6.3 6.3 0 0 0-6-4.8H6a6.2 6.2 0 0 0-6 6.8 6.3 6.3 0 0 0 6.3 5.3h17.9a3.3 3.3 0 0 1 3.3 2.6c4.2 20.1 31.2 147.5 31.2 147.5.8 3.7 3.2 6.8 6.3 6.8h46.4a6 6 0 0 0 6-6.1 6 6 0 0 0-6-6H80.8a13.4 13.4 0 0 1-13.1-10.7 8.5 8.5 0 0 1-.3-2.3 11.2 11.2 0 0 1 11.2-11.1h149.3a6.4 6.4 0 0 0 5.9-4.7l21.1-90.5a6.3 6.3 0 0 0-5.9-7.4zM133.1 181h46.6a6 6 0 0 0 6-6.1 6 6 0 0 0-6-6h-46.6a6 6 0 0 0-6 6 6 6 0 0 0 6 6.1zm-11 31.3a27.1 27.1 0 1 0-53.8 7.1 27.1 27.1 0 0 0 53.8-7.1zm90.5 0a27.1 27.1 0 1 0-53.8 7.1 27.1 27.1 0 0 0 53.8-7.1z"/></symbol></svg>