<svg xmlns="http://www.w3.org/2000/svg"><symbol id="arrow" viewBox="0 0 255 255"><path fill-rule="evenodd" d="M147.5 127.5L49 226.6 79.2 255l112.6-113.3 14.2-14.2-14.2-14.2L79.2 0 49 28.4z"/></symbol><symbol id="hamburger-icon" viewBox="0 0 255 255"><path d="M0 223.1a15.9 15.9 0 0 1 15.9-15.9h127.5a16 16 0 0 1 16 15.9 16 16 0 0 1-16 16H15.9a16 16 0 0 1-15.9-16zm0-95.6a15.9 15.9 0 0 1 15.9-15.9h223.2a15.9 15.9 0 0 1 15.9 15.9 15.9 15.9 0 0 1-15.9 15.9H15.9A15.9 15.9 0 0 1 0 127.5zm0-95.6a16 16 0 0 1 15.9-16h223.2a16 16 0 0 1 15.9 16 15.9 15.9 0 0 1-15.9 15.9H15.9A15.9 15.9 0 0 1 0 31.9z"/></symbol><symbol id="card" viewBox="0 0 255 255"><path d="M30 80.7h87.9a7 7 0 0 0 0-14H30a7 7 0 0 0 0 14z"/><path fill-rule="evenodd" d="M232.3 36.4H22.7A22.7 22.7 0 0 0 0 59.1v136.8a22.7 22.7 0 0 0 22.7 22.7h209.6a22.7 22.7 0 0 0 22.7-22.7V59.1a22.7 22.7 0 0 0-22.7-22.7zm8.7 159.5a8.7 8.7 0 0 1-8.7 8.7H22.7a8.7 8.7 0 0 1-8.7-8.7V179a8.3 8.3 0 0 1 8.3-8.3h210.4a8.3 8.3 0 0 1 8.3 8.3zm0-71.6a8.3 8.3 0 0 1-8.3 8.4H22.3a8.3 8.3 0 0 1-8.3-8.4V59.1a8.7 8.7 0 0 1 8.7-8.7h209.6a8.7 8.7 0 0 1 8.7 8.7z"/></symbol><symbol id="ig" viewBox="0 0 255 255"><path fill-rule="evenodd" d="M127.5 22.9a375.9 375.9 0 0 1 50.9 1.4 65.3 65.3 0 0 1 24 4.2 49.8 49.8 0 0 1 24.1 24 65.5 65.5 0 0 1 4.1 24c0 12.8 1.4 17 1.4 50.9a375.9 375.9 0 0 1-1.4 50.9 65.2 65.2 0 0 1-4.1 24 49.5 49.5 0 0 1-24 24.2 65.6 65.6 0 0 1-24 4.2c-12.8 0-17 1.4-50.9 1.4a411.6 411.6 0 0 1-50.9-1.4 65.3 65.3 0 0 1-24-4.2 49.5 49.5 0 0 1-24.2-24 65.5 65.5 0 0 1-4.1-24c0-12.8-1.4-17-1.4-50.9a375.9 375.9 0 0 1 1.4-50.9 65.2 65.2 0 0 1 4.1-24 52.5 52.5 0 0 1 9.9-14.2 24.3 24.3 0 0 1 14.2-9.9 65.6 65.6 0 0 1 24-4.2 411.6 411.6 0 0 1 50.9-1.4m0-22.7a397.3 397.3 0 0 0-52.3 1.4 86.9 86.9 0 0 0-31.1 5.6 55.3 55.3 0 0 0-22.6 14.2A55.3 55.3 0 0 0 7.3 44.1a63.9 63.9 0 0 0-5.6 31.1 397.3 397.3 0 0 0-1.4 52.3 396.8 396.8 0 0 0 1.4 52.3 89.5 89.5 0 0 0 5.6 31.1 56 56 0 0 0 14.2 22.6 54.7 54.7 0 0 0 22.6 14.2 86.9 86.9 0 0 0 31.1 5.6 397.3 397.3 0 0 0 52.3 1.4 396.8 396.8 0 0 0 52.3-1.4 86.9 86.9 0 0 0 31.1-5.6 59.5 59.5 0 0 0 36.8-36.8 87.3 87.3 0 0 0 5.6-31.1c0-14.2 1.4-18.4 1.4-52.3a398.3 398.3 0 0 0-1.4-52.4 87.3 87.3 0 0 0-5.6-31.1 56 56 0 0 0-14.2-22.6 55.1 55.1 0 0 0-22.6-14.1 89.5 89.5 0 0 0-31.1-5.6A396.8 396.8 0 0 0 127.5.3m0 62.2a64 64 0 0 0-65 62.9v2.1a65 65 0 1 0 65-65m0 107.4A41.7 41.7 0 0 1 85.1 129v-1.5A41.7 41.7 0 0 1 126 85.1h1.5a41.7 41.7 0 0 1 42.4 40.9v1.5a41.7 41.7 0 0 1-40.9 42.4h-1.5m67.9-125.8a15.6 15.6 0 1 0 15.5 15.6 15.8 15.8 0 0 0-15.6-15.6"/></symbol><symbol id="fb" viewBox="0 0 255 255"><path fill-rule="evenodd" d="M147.3 247.8V146.1a7.2 7.2 0 0 1 7.2-7.2h26.1a7.3 7.3 0 0 0 7.2-6.3l3.8-30.9a7.2 7.2 0 0 0-7.1-8.1h-30a7.3 7.3 0 0 1-7.2-7.2V65.3c0-12.8 4.2-22.7 22.7-22.7h16.8a7.3 7.3 0 0 0 7.3-7.2v-27a7.3 7.3 0 0 0-6.8-7.2C180.2.8 169.8.1 158.7.1A54.6 54.6 0 0 0 100.5 51a45.9 45.9 0 0 0 .1 8.3v27.1a7.2 7.2 0 0 1-7.2 7.2H68.2a7.3 7.3 0 0 0-7.3 7.2v30.9a7.3 7.3 0 0 0 7.3 7.2h25.2a7.2 7.2 0 0 1 7.2 7.2v101.7a7.2 7.2 0 0 0 7.2 7.2h32.3a7.2 7.2 0 0 0 7.2-7.2z"/></symbol><symbol id="coin" viewBox="0 0 255 255"><path fill-rule="evenodd" d="M254.3 115.2a111.2 111.2 0 0 0-2.7-14.2 100.7 100.7 0 0 0-9.9-24.4 94.5 94.5 0 0 0-9.7-14.3 103.8 103.8 0 0 0-81-38.8h-47a103.4 103.4 0 0 0-65 22.8l-1.1 1.2a103.1 103.1 0 0 0-22.3 25.6 8.3 8.3 0 0 0-1.1 1.5h-.1a7.1 7.1 0 0 0-.8 1.8 104.1 104.1 0 0 0-10 24.6 13.4 13.4 0 0 0-.7 1.8 105.5 105.5 0 0 0-2.9 26 102.2 102.2 0 0 0 22.1 62.3 103.7 103.7 0 0 0 64.2 38.7 108 108 0 0 0 18.9 1.7H151a103.9 103.9 0 0 0 81.1-38.9 108.8 108.8 0 0 0 9.7-14.3 108.3 108.3 0 0 0 9.8-24.4 109.5 109.5 0 0 0 2.7-14.3 96 96 0 0 0 .7-12.1 100.3 100.3 0 0 0-.7-12.3zm-25.9-33.1a99.3 99.3 0 0 1 5.8 11.8 5.1 5.1 0 0 1-4.7 7.1h-16.9a10.9 10.9 0 0 1-10.3-7.4 4.9 4.9 0 0 0-.4-1.1l-.3-1.1-.6-1.4a10.4 10.4 0 0 0-.4-1l-.6-1.6a5.9 5.9 0 0 0-.4-.8c-.2-.6-.5-1.1-.7-1.7l-.3-.7-.6-1.3a4.4 4.4 0 0 1 4-6.3h16.6a11.3 11.3 0 0 1 9.8 5.5zm-53-41a88.8 88.8 0 0 1 28.9 14.3 3.8 3.8 0 0 1-2.2 6.9h-11.3a12.6 12.6 0 0 1-9.3-4.1c-.1-.1-.2-.3-.4-.4l-.7-.9-2.7-2.8h-.2a79.5 79.5 0 0 0-6-5.6 4.2 4.2 0 0 1 3.9-7.4zm-85-2.3h.1l3.7-.4 1-.2h1.7l2.7-.2h4.4a89.3 89.3 0 0 1 61.6 24.5 87.8 87.8 0 0 1 12.2 14.3 86.4 86.4 0 0 1 11.9 24.2 94.5 94.5 0 0 1 3.2 14.2 99 99 0 0 1 .8 12.3 95.8 95.8 0 0 1-.8 12.1 84.7 84.7 0 0 1-3.2 14.3 88.9 88.9 0 0 1-11.8 24.4 87.8 87.8 0 0 1-12.2 14.3 89.2 89.2 0 0 1-20.3 14.5h-.2l-3.2 1.6-.8.4-2.9 1.2-1.3.5-2.4.9-3.5 1.2h-.3a90.8 90.8 0 0 1-26.7 4A89.7 89.7 0 0 1 90.4 38.8zm113 161.5a91.9 91.9 0 0 1-25.4 12.8 4.8 4.8 0 0 1-4.6-8.2 98.8 98.8 0 0 0 9.6-9.8 7.2 7.2 0 0 1 5.4-2.5h12.5a4.3 4.3 0 0 1 2.5 7.7zm28.4-33.7c-1.2 2.4-2.5 4.7-3.9 7a9.6 9.6 0 0 1-8.2 4.7h-16.8a5 5 0 0 1-4.6-7c1.3-2.8 2.5-5.6 3.6-8.5a13.4 13.4 0 0 1 12.5-8.9h9.3a8.9 8.9 0 0 1 8.1 12.7zm8.7-32.9a6.4 6.4 0 0 1-6.4 5.9h-21a5.2 5.2 0 0 1-5.3-5.5v-.9a4.9 4.9 0 0 0 .1-1.2v-1.7a21.7 21.7 0 0 0 .1-2.6v-3a8.1 8.1 0 0 1-.1-1.6 4.9 4.9 0 0 0-.1-1.2v-.5a5.9 5.9 0 0 1 5.9-6.2h17.9a9 9 0 0 1 9 8.7c.1 1.2.1 2.4.1 3.6s-.1 4.1-.2 6.2z"/><path fill-rule="evenodd" d="M84.9 170.1a11.5 11.5 0 0 1 5.8 10.1v1.3c0 2.6 1.5 4.1 4.1 4h15.3a4.2 4.2 0 0 0 4.1-4.1v-.3a11.5 11.5 0 0 1 6.8-10.5 27.5 27.5 0 0 0 15.6-24c-.4-30.1-38-26.9-40.2-37.3-.6-2.6 1.3-6 6.2-6.1s8.8 3.3 9.9 8.6c.4 2.5 1.8 3.8 4.4 3.1l14.4-3.6c2.3-.5 3.4-1.8 3.2-4.3-.6-6.5-3.2-16.7-13.3-22.2a11.8 11.8 0 0 1-6-10.2v-1a4.1 4.1 0 0 0-4-4.1H95.9c-2.6 0-4.1 1.4-4.1 4.1v.8a11.5 11.5 0 0 1-6.1 10.1c-12.4 6.9-12.7 20.9-12.6 23.7.6 30.1 36.4 24.8 39 36.1.7 2.7-1.1 7.2-8.7 7.4s-9.4-3.6-10.1-9.8c-.4-2.8-1.8-3.7-4.2-3.2l-14.5 3.4a4 4 0 0 0-3.2 4.4c.7 7.1 3.1 17.9 13.5 23.6z"/></symbol><symbol id="socks" viewBox="0 0 255 255"><path fill-rule="evenodd" d="M133.8 187.2a41.2 41.2 0 0 0-5.6-6.9l-23.1-23.1a13 13 0 0 1-3.8-9.3V65.8a17.1 17.1 0 0 0-17.1-17H30.8a17 17 0 0 0-17 17v111a30.5 30.5 0 0 0 9 21.8L40 215.8 65.1 241l1.3 1.2 1.6 1.5c.1.1.1.2.2.2l1.5 1.3a43.8 43.8 0 0 0 55.2 0l1.5-1.3.2-.2 1.6-1.5 2.6-2.8a43.9 43.9 0 0 0 3-52.2zm-90.9.7a2.3 2.3 0 0 1-4 1.6l-3.5-3.4a13 13 0 0 1-3.8-9.3v-8.9a2.3 2.3 0 0 1 4.2-1.5 36.2 36.2 0 0 1 7.1 21.5zm29.8 26.9a5.3 5.3 0 0 1-8 .6l-5.4-5.4a5.4 5.4 0 0 1-1.3-5.4 52.6 52.6 0 0 0 2.7-16.7 54.1 54.1 0 0 0-25.2-45.6 8 8 0 0 1-3.9-6.9V94.9a5.2 5.2 0 0 1 5.2-5.2h10.9a6.5 6.5 0 0 0 6.6-5.6A6.3 6.3 0 0 0 48 77H36.8a5.2 5.2 0 0 1-5.2-5.2 5.2 5.2 0 0 1 5.2-5.2h41.5a5.2 5.2 0 0 1 0 10.4h-11a6.6 6.6 0 0 0-6.6 5.6 6.4 6.4 0 0 0 6.3 7.1h11.3a5.2 5.2 0 0 1 5.2 5.2v53a30.9 30.9 0 0 0 9 21.9l11.4 11.3a5.8 5.8 0 0 1-1.6 9.3 79.5 79.5 0 0 0-29.6 24.4zm50.3-.5c0 .4-.1.8-.1 1.3s-.1.5-.2.7l-.3 1.4c0 .2-.1.4-.1.6a14.6 14.6 0 0 1-.7 1.9.8.8 0 0 1-.1.4l-.6 1.5a4.3 4.3 0 0 0-.4.7l-.6 1.1a1.6 1.6 0 0 1-.4.7 4.1 4.1 0 0 1-.7 1.1 4.3 4.3 0 0 1-.4.7l-.9 1.1-.4.6-1.4 1.5a15.4 15.4 0 0 1-1.9 1.7l-.8.6-1.1.8-1.1.7-.9.6-1.3.6-.8.4-1.4.5-.8.3-1.4.5-.9.2-1.4.3h-1l-1.3.2h-4.1c-10.3-.8-9.5-9.5-5.9-14.8a64.6 64.6 0 0 1 19.5-15.2 18.5 18.5 0 0 0 2-1l3.5-1.5c7.6-1.9 8.5 9 8.5 9a2.2 2.2 0 0 1-.1.8z"/><path fill-rule="evenodd" d="M234.1 138.4h-.1a41.2 41.2 0 0 0-5.6-6.9l-23.1-23.1a13 13 0 0 1-3.8-9.2V17a17 17 0 0 0-17.1-17H131a17 17 0 0 0-17 17v111a30.9 30.9 0 0 0 9 21.9l17.2 17.1 25.1 25.2 1.3 1.2 1.6 1.6.3.2 1.4 1.2h.1a43.8 43.8 0 0 0 55.1-.1l1.5-1.2.2-.2 1.6-1.6a22.7 22.7 0 0 0 2.6-2.8 44 44 0 0 0 3.1-52.1zm-91 .8a2.4 2.4 0 0 1-4 1.6l-3.5-3.5a13.4 13.4 0 0 1-3.8-9.3v-8.9a2.3 2.3 0 0 1 4.2-1.4 35.9 35.9 0 0 1 7.1 21.4zm29.8 26.9a5.4 5.4 0 0 1-8 .5l-5.4-5.4a5.4 5.4 0 0 1-1.3-5.4 52.2 52.2 0 0 0 2.7-16.7 54.2 54.2 0 0 0-25.3-45.6 8.3 8.3 0 0 1-3.8-7V46.2a5.2 5.2 0 0 1 5.2-5.3h11a6.4 6.4 0 0 0 6.5-5.7 6.3 6.3 0 0 0-6.3-7H137a5.2 5.2 0 0 1-5.2-5.2 5.2 5.2 0 0 1 5.2-5.2h41.5a5.2 5.2 0 0 1 5.2 5.2 5.2 5.2 0 0 1-5.2 5.2h-11a6.7 6.7 0 0 0-6.6 5.8 6.3 6.3 0 0 0 6.4 6.9h11.2a5.2 5.2 0 0 1 5.2 5.3v53a30.4 30.4 0 0 0 9.1 21.8l11.3 11.4a5.7 5.7 0 0 1-1.5 9.2 80.1 80.1 0 0 0-29.7 24.5zm50.4-.6c-.1.4-.1.9-.2 1.3s-.1.5-.2.7a3.5 3.5 0 0 1-.3 1.4c0 .2-.1.4-.1.6l-.6 1.9c-.1.2-.1.3-.2.4l-.6 1.5-.3.7a7.5 7.5 0 0 1-.7 1.2l-.4.7-.7 1.1-.4.6-.9 1.1-.4.6-1.4 1.5a15.4 15.4 0 0 1-1.9 1.7l-.7.6-1.2.9-1 .6-1 .6-1.2.6-.9.4-1.4.6-.8.3-1.4.4-.9.2-1.4.3-1 .2h-5.4c-10.3-.9-9.5-9.6-5.9-14.8a63.4 63.4 0 0 1 19.5-15.4 7.5 7.5 0 0 0 2-1l3.5-1.5c7.6-1.8 8.5 9 8.5 9z"/></symbol><symbol id="shopping-cart" viewBox="0 0 255 255"><path fill-rule="evenodd" d="M98.7 188.9a27.1 27.1 0 1 0 23.4 23.4 27.2 27.2 0 0 0-23.4-23.4zM249 42.2H52.6A11.7 11.7 0 0 1 41.2 33l-3.4-16.2a6.3 6.3 0 0 0-6-4.8H6a6.2 6.2 0 0 0-6 6.8 6.3 6.3 0 0 0 6.3 5.3h17.9a3.3 3.3 0 0 1 3.3 2.6c4.2 20.1 31.2 147.5 31.2 147.5.8 3.7 3.2 6.8 6.3 6.8h150.8a6.1 6.1 0 1 0 0-12.1h-135a13.4 13.4 0 0 1-13.1-10.7 8.5 8.5 0 0 1-.3-2.3 11.2 11.2 0 0 1 11.2-11.1h149.3a6.4 6.4 0 0 0 5.9-4.7l21.1-90.5a6.3 6.3 0 0 0-5.9-7.4zm-59.8 146.7a27.1 27.1 0 1 0 23.4 23.4 27.2 27.2 0 0 0-23.4-23.4z"/></symbol><symbol id="close" viewBox="0 0 255 255"><path fill-rule="evenodd" d="M127.5 97.4L37.2 7.2A21.3 21.3 0 1 0 5.4 35.4a15.3 15.3 0 0 0 1.8 1.8l90.2 90.3-90.2 90.3a21.3 21.3 0 1 0 28.2 31.8l1.8-1.8 90.3-90.2 90.3 90.2a21.3 21.3 0 0 0 31.8-28.2l-1.8-1.8-90.2-90.3 90.2-90.3a21.3 21.3 0 1 0-28.2-31.8l-1.8 1.8z"/></symbol><symbol id="twitter" viewBox="0 0 255 255"><path fill-rule="evenodd" d="M80.7 230.9c81.5.7 148.1-64.7 148.8-146.1v-8.3a3 3 0 0 1 1.1-2.3 117.3 117.3 0 0 0 18.5-18.1 2.8 2.8 0 0 0-3.2-4.4c-2.9 1-5.9 1.8-8.9 2.6a2.8 2.8 0 0 1-2.7-4.8 55.3 55.3 0 0 0 10.3-13.7 2.8 2.8 0 0 0-3.7-3.9 129.1 129.1 0 0 1-23.9 8.7 2.9 2.9 0 0 1-2.8-.8 50.2 50.2 0 0 0-37.1-15.7 53.1 53.1 0 0 0-52.4 52.4 24.8 24.8 0 0 0 .4 7.7 2.9 2.9 0 0 1-3 3.4 146.8 146.8 0 0 1-101-51.7 2.8 2.8 0 0 0-4.7.6 53.9 53.9 0 0 0-5 23 56.2 56.2 0 0 0 15.9 38 2.8 2.8 0 0 1-2.6 4.8 47.5 47.5 0 0 1-14.8-6 51.9 51.9 0 0 0 30 47.1c2.8 1.2 1.7 5.5-1.4 5.3h-.4a19.3 19.3 0 0 1-4.8-.2 2.9 2.9 0 0 0-3 4 53.9 53.9 0 0 0 40.3 31 2.8 2.8 0 0 1 1.2 5.1 107 107 0 0 1-59.1 18.2h-1.2a2.8 2.8 0 0 0-1.3 5.2 133.2 133.2 0 0 0 70.5 18.8"/></symbol><symbol id="thumbs-up" viewBox="0 0 255 255"><path d="M51.2 167.5c5.3-.2 7-4.1 6.8-8.9v-11.1c.2-21.7 9.8-31.7 31.7-32 10.2 0 19.5-2.9 25.1-11.6a83.7 83.7 0 0 0 10.8-22.8c4.6-16.1 8-32.3 12.1-48.6 2.8-11.1 10.6-16.6 20.2-14.2s13.5 10.8 11 21.6c-1.9 7.7-3.8 15.4-5.5 23.1-1 4.6-1 9.5 4.8 10.9s8-2.6 9.1-7.5 2.4-10.6 3.7-15.8c6.4-25.6 2.9-34.4-19.5-47.2h-15.2c-14.7 6.2-21.4 17.5-24.5 32.9s-8.2 32.8-13 49.1c-3.1 10.6-9.9 16.2-21.9 15.9-16.4-.5-29.4 6.7-38.1 21a8.7 8.7 0 0 1-6.7 3.6c-20-1.5-42.1 9.8-42.1 25.3v49.5c.5 7.1 4.1 10.7 7.4 14.3s10.1 1.4 10.1 1.4 4-2.4 1.3-10.4c-1.5-3.8-4.3-5.8-4.1-17.8-.7-8.2-.2-16.4-.2-24.6 0-18.5 10.5-26.2 29.3-21.2v15.9c0 5.1 1.4 9.4 7.4 9.2z"/><path d="M253.1 108.8c-5-12.1-14.9-16.4-27.2-16.2-22.5.1-44.9-.2-67.1.8-15.1.7-24.5 14.6-21.9 29.3.3 1.9.3 3.7.7 6-14.4-.4-25.5 4.2-29.6 18.3s2.4 23.9 14.3 30.9c-6.6 15.4-1 26.7 10.8 35.5-7.7 23.1 3.1 37.9 27.1 37.9 14.7 0 29.4.2 44.1 0s24.6-10.4 25-23.7c.1-5.2-1.7-10.5-2.8-16.1 12-9.3 14.6-21.4 7.7-35.4 12.4-10 15.6-21.6 8.4-35.8 11.8-11 14.9-20.5 10.5-31.5zm-50.9 128.3c-7.7.2-15.2 0-22.9 0h-23.1c-6.7-.2-11.4-3.1-11.8-10.5s4.1-10.7 12.2-10.9c15.2-.2 30.6-.2 45.8 0 7.9.2 12.5 4.6 12.5 10.9s-4.4 10.4-12.7 10.5zm8.6-36.2h-32.2c-10.7 0-21.5-.2-32.3.1-6.9.2-11.8-2.2-12.3-9.7s3.6-11.5 11.4-11.6c22.1-.4 44.2-.2 66.3 0 6.8 0 11.2 3.5 11.6 10.7s-4.5 10.5-12.5 10.5zm7-36h-83.5c-8.5 0-13.3-3.9-13.5-10.6s5-11.1 13.3-11.1q42.2-.3 84.2 0c8.6.2 13.4 4.5 13.5 11s-4.7 10.7-14 10.7zm9.1-36.1c-21.1 0-41.9.2-63 0-8.9-.1-13.2-3.9-13.2-10.9s4.7-10.6 13.4-10.8c10.8-.2 21.5 0 32.3 0s20.6-.2 30.7 0c8.3 0 13.3 4.3 13.3 11s-5 10.7-13.5 10.7zm-145.1 108c-14.9-2.7-23.1-12.3-23.6-27.5v-8.6c0-5.3 0-11-7.4-10.8s-6.8 6.2-6.8 11.3v5.1c0 24.7 13.3 42 35 44.9 5.2.7 11 1.3 12.4-5.5s-4.3-8-9.6-8.9z"/></symbol><symbol id="search" viewBox="0 0 255 255"><path fill-rule="evenodd" d="M189.41 167.14L255 232.81l-22.08 22.13-65.62-65.63 2.07-15.23 20.04-6.94z"/><path fill-rule="evenodd" d="M105 .06a104.88 104.88 0 1 0 104.82 104.88A104.88 104.88 0 0 0 105 .06zm0 188.78a83.9 83.9 0 1 1 83.9-83.9 83.9 83.9 0 0 1-83.9 83.9z"/></symbol><symbol id="search" viewBox="0 0 255 255"><path fill-rule="evenodd" d="M189.41 167.14L255 232.81l-22.08 22.13-65.62-65.63 2.07-15.23 20.04-6.94z"/><path fill-rule="evenodd" d="M105 .06a104.88 104.88 0 1 0 104.82 104.88A104.88 104.88 0 0 0 105 .06zm0 188.78a83.9 83.9 0 1 1 83.9-83.9 83.9 83.9 0 0 1-83.9 83.9z"/></symbol></svg>