<svg id="Layer_1" data-name="Layer 1" xmlns="http://www.w3.org/2000/svg" width="32" height="32" viewBox="0 0 32 32"><title>logo-32</title><path d="M29.6,16.2a.7.7,0,0,1,0-1.1,4.7,4.7,0,0,0,2-4c0-2.4-1.8-5.2-6-5.2H16.2a.7.7,0,0,0-.7.7v3.7a.7.7,0,0,0,.7.6h8a1.2,1.2,0,0,1,1.2,1.2,1.2,1.2,0,0,1-1.2,1.3H6.7a.6.6,0,0,1-.6-.6V11.6a.6.6,0,0,1,.6-.6h5.7a.7.7,0,0,0,.7-.7V6.6a.7.7,0,0,0-.7-.6H.6a.6.6,0,0,0-.6.6V25.4a.6.6,0,0,0,.6.6H5.5a.6.6,0,0,0,.6-.6V19a.6.6,0,0,1,.6-.6h8.2a.5.5,0,0,1,.6.6v6.4a.7.7,0,0,0,.7.7h9.9c4,0,5.9-2.7,5.9-5.5A5,5,0,0,0,29.6,16.2Zm-5.2,4.9H22.3a.7.7,0,0,1-.7-.6V19c0-.4.3-.6.7-.6h2.1a1.3,1.3,0,0,1,1.4,1.4A1.3,1.3,0,0,1,24.4,21.1Z" fill="#1e1e1e"/></svg>