<svg id="Layer_1" data-name="Layer 1" xmlns="http://www.w3.org/2000/svg" width="16" height="16" viewBox="0 0 16 16"><title>logo-16</title><path d="M14.8,8.1a.3.3,0,0,1,0-.5,2.4,2.4,0,0,0,1-2.1c0-1.1-.9-2.5-3-2.5H8.1a.3.3,0,0,0-.3.3V5.1a.3.3,0,0,0,.3.3h4a.7.7,0,0,1,.6.7.6.6,0,0,1-.6.6H3.4c-.2,0-.4-.1-.4-.3V5.8c0-.2.2-.3.4-.3H6.2a.3.3,0,0,0,.3-.3V3.3A.3.3,0,0,0,6.2,3H.3a.3.3,0,0,0-.3.3v9.4a.3.3,0,0,0,.3.3H2.7a.3.3,0,0,0,.3-.3V9.5c0-.2.2-.3.4-.3H7.5a.3.3,0,0,1,.3.3v3.2a.3.3,0,0,0,.3.3H13c2.1,0,3-1.3,3-2.7A2.5,2.5,0,0,0,14.8,8.1Zm-2.6,2.5H11.1a.4.4,0,0,1-.3-.4V9.5a.3.3,0,0,1,.3-.3h1.1a.7.7,0,1,1,0,1.4Z" fill="#1e1e1e"/></svg>