<svg id="Layer_1" data-name="Layer 1" xmlns="http://www.w3.org/2000/svg" width="64" height="64" viewBox="0 0 64 64"><title>logo-64</title><path d="M59.2,32.4a1.3,1.3,0,0,1,0-2.2c2.4-1.5,4-4.3,4-8.1S59.6,11.9,51.3,11.9H32.4a1.3,1.3,0,0,0-1.3,1.3v7.3a1.3,1.3,0,0,0,1.3,1.3h16a2.5,2.5,0,0,1,0,5h-35a1.2,1.2,0,0,1-1.2-1.2V23.2a1.2,1.2,0,0,1,1.2-1.3H24.9a1.2,1.2,0,0,0,1.2-1.3V13.3A1.2,1.2,0,0,0,24.9,12H1.3A1.3,1.3,0,0,0,0,13.3V50.7A1.3,1.3,0,0,0,1.3,52h9.6a1.3,1.3,0,0,0,1.3-1.3V38a1.2,1.2,0,0,1,1.2-1.3H29.8A1.3,1.3,0,0,1,31.1,38V50.8a1.3,1.3,0,0,0,1.3,1.3H52.1c8.1,0,11.9-5.3,11.9-10.9A9.7,9.7,0,0,0,59.2,32.4ZM48.8,42.2H44.5a1.2,1.2,0,0,1-1.2-1.3V38a1.2,1.2,0,0,1,1.2-1.3h4.3a2.7,2.7,0,0,1,2.8,2.8A2.6,2.6,0,0,1,48.8,42.2Z" fill="#1e1e1e"/></svg>