<svg id="Layer_1" data-name="Layer 1" xmlns="http://www.w3.org/2000/svg" width="256" height="160.8" viewBox="0 0 256 160.8"><title>logo</title><path d="M236.9,81.9a5.1,5.1,0,0,1-.3-8.6c9.8-6.2,16.3-17.5,16.3-32.3,0-18.8-14.5-41-47.8-41H129.4a5,5,0,0,0-5,5.1V34.5a5,5,0,0,0,5,5h64.4a9.9,9.9,0,0,1,9.6,9.9c0,5.8-4.6,10.4-9.6,10.4H53.8a5.1,5.1,0,0,1-5.1-5.1V45.1A5.1,5.1,0,0,1,53.8,40H99.5a5,5,0,0,0,5.1-5V5.5a5,5,0,0,0-5.1-5H5.1A5,5,0,0,0,0,5.5V155.3a5.1,5.1,0,0,0,5.1,5.1H43.6a5.1,5.1,0,0,0,5.1-5.1V104.4a5.1,5.1,0,0,1,5.1-5.1h65.5a5.1,5.1,0,0,1,5.1,5.1v51.4a5,5,0,0,0,5,5h79.1c32.3,0,47.5-21.2,47.5-43.6C256,101.4,248.3,88.4,236.9,81.9Zm-41.7,39.4H178.1a5,5,0,0,1-5-5.1V104.4a5,5,0,0,1,5-5.1h17.1a11,11,0,0,1,11.4,11.1C206.6,116.5,202.2,121.3,195.2,121.3Z" fill="#1e1e1e"/></svg>