<?xml version="1.0" encoding="utf-8"?>
<!-- Generator: Adobe Illustrator 24.0.3, SVG Export Plug-In . SVG Version: 6.00 Build 0)  -->
<svg version="1.1" id="Layer_1" xmlns="http://www.w3.org/2000/svg" xmlns:xlink="http://www.w3.org/1999/xlink" x="0px" y="0px"
	 viewBox="0 0 256 256" style="enable-background:new 0 0 256 256;" xml:space="preserve">
<path d="M236.9,129.5c-2.4-1.4-3.2-4.6-1.8-7c0.4-0.6,0.9-1.2,1.5-1.6c9.8-6.2,16.3-17.5,16.3-32.3c0-18.8-14.5-41-47.8-41h-75.7
	c-2.8,0-5,2.2-5,5v0.1v29.4c0,2.8,2.2,5,5,5h64.4c5.4,0.2,9.6,4.5,9.6,9.9c0,5.8-4.6,10.4-9.6,10.4h-140c-2.8,0-5.1-2.3-5.1-5.1
	v-9.6c0-2.8,2.3-5.1,5.1-5.1h45.7c2.8,0,5.1-2.3,5.1-5.1V53.1c0-2.8-2.2-5-5-5h-0.1H5.1C2.3,48,0.1,50.2,0,53v0.1v149.8
	c0,2.8,2.2,5,5,5h0.1h38.5c2.8,0.1,5-2.1,5.1-4.9v-0.1V152c0-2.8,2.3-5.1,5.1-5.1l0,0h65.5c2.8,0,5.1,2.3,5.1,5.1l0,0v51.3
	c-0.1,2.8,2.1,5,4.9,5.1h0.1h79.1c32.3,0,47.5-21.2,47.5-43.6C256,149,248.3,136,236.9,129.5L236.9,129.5z M195.2,168.9h-17.1
	c-2.8,0-5-2.2-5-5v-0.1V152c-0.1-2.8,2.1-5,4.9-5.1h0.1h17.1c6.1-0.2,11.2,4.5,11.4,10.6c0,0.2,0,0.3,0,0.5
	C206.6,164.1,202.2,168.9,195.2,168.9L195.2,168.9z"/>
</svg>
